<svg version="1.1" id="Layer_1" xmlns="http://www.w3.org/2000/svg" xmlns:xlink="http://www.w3.org/1999/xlink" x="0px" y="0px"
     width="228px" height="63.715px" viewBox="0 0 228 63.715" enable-background="new 0 0 228 63.715" xml:space="preserve">
    <filter
       style="color-interpolation-filters:sRGB;"
       id="filter3582" filterRes="1000">
      <feFlood
         flood-opacity="0.384314"
         flood-color="rgb(76,118,158)"
         result="flood"
         id="feFlood3584" />
      <feComposite
         in="flood"
         in2="SourceGraphic"
         operator="in"
         result="composite1"
         id="feComposite3586" />
      <feGaussianBlur
         in="composite1"
         stdDeviation="1"
         result="blur"
         id="feGaussianBlur3588" />
      <feOffset
         dx="0"
         dy="0"
         result="offset"
         id="feOffset3590" />
      <feComposite
         in="SourceGraphic"
         in2="offset"
         operator="over"
         result="composite2"
         id="feComposite3592" />
  </filter>

  <filter
       style="color-interpolation-filters:sRGB;"
       id="filter3594" filterRes="1000"><feFlood
         flood-opacity="0.2"
         flood-color="rgb(0,0,0)"
         result="flood"
         id="feFlood3596" /><feComposite
         in="flood"
         in2="SourceGraphic"
         operator="in"
         result="composite1"
         id="feComposite3598" /><feGaussianBlur
         in="composite1"
         stdDeviation="1"
         result="blur"
         id="feGaussianBlur3600" /><feOffset
         dx="0"
         dy="0"
         result="offset"
         id="feOffset3602" /><feComposite
         in="SourceGraphic"
         in2="offset"
         operator="over"
         result="composite2"
         id="feComposite3604" /></filter>

<g id="circles" filter="url(#filter3594)">

        <radialGradient id="SVGID_1_" cx="676.1875" cy="583.4631" r="23.8223" gradientTransform="matrix(1 0 0 1 -592 -551.0693)" gradientUnits="userSpaceOnUse">
        <stop  offset="0.084" style="stop-color:#E1F4FD"/>
        <stop  offset="0.866" style="stop-color:#C9DDF3"/>
        <stop  offset="0.95" style="stop-color:#B9D0EA"/>
        <stop  offset="0.966" style="stop-color:#B5CDE8"/>
        <stop  offset="1" style="stop-color:#A4C1E2"/>
    </radialGradient>
    <circle fill="url(#SVGID_1_)" cx="84.188" cy="32.394" r="23.822"/>
    <g opacity="0.72">

            <radialGradient id="SVGID_2_" cx="703.1143" cy="583.4915" r="23.8223" gradientTransform="matrix(1 0 0 1 -592 -551.0693)" gradientUnits="userSpaceOnUse">
            <stop  offset="0" style="stop-color:#EDF8FE"/>
            <stop  offset="0.832" style="stop-color:#D6E5F1"/>
            <stop  offset="0.9" style="stop-color:#C9DFF1"/>
            <stop  offset="0.95" style="stop-color:#BCD9F2"/>
            <stop  offset="1" style="stop-color:#A5CBEC"/>
        </radialGradient>
        <circle fill="url(#SVGID_2_)" cx="111.114" cy="32.422" r="23.822"/>
    </g>
    <g opacity="0.72">

            <radialGradient id="SVGID_3_" cx="730.7227" cy="583.6233" r="23.8218" gradientTransform="matrix(1 0 0 1 -592 -551.0693)" gradientUnits="userSpaceOnUse">
            <stop  offset="0" style="stop-color:#F9F6C1"/>
            <stop  offset="0.748" style="stop-color:#FCF9CE"/>
            <stop  offset="0.789" style="stop-color:#FCF8C4"/>
            <stop  offset="0.862" style="stop-color:#FEF6AA"/>
            <stop  offset="0.883" style="stop-color:#FEF5A2"/>
            <stop  offset="1" style="stop-color:#E6D591"/>
        </radialGradient>
        <circle fill="url(#SVGID_3_)" cx="138.722" cy="32.554" r="23.822"/>
    </g>
</g>
<path id="Circle_Wellness" fill="#FFFFFF" filter="url(#filter3582)" d="M20.333,38.662c-2.018,2.11-4.21,2.901-6.475,2.988
    c-4.197,0.164-8.654-2.796-8.851-8.558c-0.177-5.254,3.646-9.074,8.98-9.074c2.57,0,4.75,1.142,6.247,2.732l-1.3,1.367
    c-0.848-0.879-2.799-2.34-4.82-2.34c-4.42,0-7.152,2.9-7.152,7.312c0,4.11,3.351,6.899,6.896,6.83
    c1.886-0.035,3.319-0.75,5.237-2.44l1.235,1.173L20.333,38.662z M58.591,38.662c-2.018,2.11-4.21,2.901-6.474,2.988
    c-4.197,0.164-8.654-2.796-8.85-8.558c-0.179-5.254,3.644-9.074,8.979-9.074c2.57,0,4.75,1.142,6.245,2.732l-1.308,1.367
    c-0.847-0.879-2.799-2.34-4.82-2.34c-4.42,0-7.15,2.9-7.15,7.312c0,4.11,3.351,6.899,6.896,6.83c1.886-0.035,3.319-0.75,5.24-2.44
    l1.235,1.173L58.591,38.662z M24.399,24.345v16.994h-2.011V24.346L24.399,24.345L24.399,24.345z M27.879,24.345
    c0.156-0.023,4.212-0.033,6.084-0.033c3.156,0,4.393,0.424,5.563,1.302c1.205,0.905,1.822,2.375,1.822,3.45
    c0,2.34-0.944,4.782-4.648,5.286c0,0,4.86,6.342,5.296,6.99H39.59c-0.342-0.498-4.914-6.617-4.914-6.617h-4.878v6.62h-1.92V24.35
    L27.879,24.345z M29.799,32.999h3.994c3.357,0,5.635-0.813,5.635-3.546c0-2.08-1.593-3.312-4.033-3.312h-5.592v6.861L29.799,32.999z
     M60.447,24.376h1.947v15.146h9.63v1.818H60.453V24.377L60.447,24.376z M135.03,24.376h1.949v15.146h9.629v1.818H135.03V24.376
    L135.03,24.376z M148.735,24.376h1.947v15.146h9.62v1.818h-11.569V24.377L148.735,24.376z M85.33,33.652h-9.27v5.87h10.506v1.817
    H73.973V24.346h12.43v1.818H76.059v5.694h9.27L85.33,33.652L85.33,33.652z M191.297,33.652h-9.271v5.87h10.511v1.817h-12.595V24.346
    h12.431v1.818h-10.351v5.694h9.271v1.794L191.297,33.652z M131.399,33.652h-9.271v5.87h10.508v1.817h-12.594V24.346h12.431v1.818
    h-10.345v5.694h9.271V33.652L131.399,33.652z M99.52,41.446l-6.051-17.142h2.059l4.865,14.24l4.703-14.269h1.641
    c0,0,4.563,14.074,4.564,14.352l4.842-14.325l2.124,0.03l-6.147,17.14h-1.76c0,0-4.471-13.77-4.488-13.88l-4.72,13.854H99.51H99.52z
     M162.276,41.339v-16.99h1.826c0,0,10.629,13.521,10.719,13.675l-0.021-13.7h1.864v17.019h-1.538l-11.021-14.036
    c0.017,0.312,0.035,14.035,0.035,14.035h-1.873L162.276,41.339z M209.045,37.413c1.255,1.1,2.931,2.288,5.125,2.438
    c2.69,0.185,4.397-0.795,4.55-2.753c0.172-2.196-2.138-2.977-4.244-3.368c-3.945-0.734-5.904-2.111-5.904-4.894
    c0-2.817,2.418-4.867,6.174-4.734c2.34,0.084,4.42,1.243,5.367,2.102l-1.129,1.47c-1.44-1.315-3.03-1.806-4.379-1.867
    c-2.479-0.112-4.129,0.827-4.129,2.815c0,1.568,0.938,2.57,4.74,3.396c3.244,0.706,5.63,1.838,5.387,5.234
    c-0.188,2.584-2.602,4.713-7.021,4.37c-2.131-0.167-4.193-1.389-5.692-2.765l1.163-1.437L209.045,37.413z M194.937,37.413
    c1.256,1.1,2.93,2.288,5.127,2.438c2.688,0.185,4.396-0.795,4.549-2.753c0.17-2.196-2.137-2.977-4.244-3.368
    c-3.947-0.734-5.906-2.111-5.906-4.894c0-2.817,2.41-4.867,6.17-4.734c2.33,0.084,4.38,1.243,5.33,2.102l-1.068,1.5
    c-1.164-1.227-3.062-1.836-4.408-1.897c-2.478-0.112-4.131,0.827-4.131,2.815c0,1.568,0.939,2.57,4.742,3.396
    c3.242,0.706,5.631,1.838,5.385,5.234c-0.186,2.584-2.699,4.858-7.021,4.37c-2.099-0.24-4.3-1.4-5.692-2.765l1.164-1.437
    L194.937,37.413z"/>
</svg>
