<svg xmlns="http://www.w3.org/2000/svg" width="215.609" height="78.807" viewBox="0 0 215.609 78.807"><radialGradient id="a" cx="79.185" cy="30.391" r="23.822" gradientUnits="userSpaceOnUse"><stop offset=".084" stop-color="#E1F4FD"/><stop offset=".866" stop-color="#C9DDF3"/><stop offset=".95" stop-color="#B9D0EA"/><stop offset=".966" stop-color="#B5CDE8"/><stop offset="1" stop-color="#A4C1E2"/></radialGradient><circle fill="url(#a)" cx="79.185" cy="30.392" r="23.822"/><g opacity=".72"><radialGradient id="b" cx="106.111" cy="30.42" r="23.823" gradientUnits="userSpaceOnUse"><stop offset="0" stop-color="#EDF8FE"/><stop offset=".832" stop-color="#D6E5F1"/><stop offset=".9" stop-color="#C9DFF1"/><stop offset=".95" stop-color="#BCD9F2"/><stop offset="1" stop-color="#A5CBEC"/></radialGradient><circle fill="url(#b)" cx="106.111" cy="30.42" r="23.822"/></g><g opacity=".72"><radialGradient id="c" cx="133.719" cy="30.551" r="23.822" gradientUnits="userSpaceOnUse"><stop offset="0" stop-color="#F9F6C1"/><stop offset=".748" stop-color="#FCF9CE"/><stop offset=".789" stop-color="#FCF8C4"/><stop offset=".862" stop-color="#FEF6AA"/><stop offset=".883" stop-color="#FEF5A2"/><stop offset="1" stop-color="#E6D591"/></radialGradient><circle fill="url(#c)" cx="133.719" cy="30.552" r="23.822"/></g><path fill="#244A81" d="M15.33 36.66c-2.018 2.112-4.21 2.903-6.475 2.99-4.197.164-8.654-2.796-8.85-8.558-.177-5.254 3.645-9.074 8.98-9.074 2.57 0 4.75 1.14 6.247 2.732l-1.3 1.367c-.847-.878-2.798-2.338-4.82-2.338-4.42 0-7.152 2.903-7.152 7.312 0 4.11 3.35 6.898 6.896 6.832 1.886-.034 3.32-.748 5.238-2.44l1.235 1.174zm38.258 0c-2.018 2.112-4.21 2.903-6.474 2.99-4.197.164-8.654-2.796-8.85-8.558-.178-5.254 3.644-9.074 8.98-9.074 2.57 0 4.75 1.14 6.245 2.732l-1.303 1.367c-.846-.878-2.798-2.338-4.82-2.338-4.42 0-7.15 2.903-7.15 7.312 0 4.11 3.35 6.898 6.895 6.832 1.886-.034 3.318-.748 5.238-2.44l1.238 1.174zM19.396 22.343v16.994h-2.01V22.344h2.01zm3.48 0c.156-.023 4.212-.033 6.084-.033 3.156 0 4.392.424 5.563 1.302 1.205.905 1.822 2.375 1.822 3.45 0 2.34-.944 4.782-4.648 5.286 0 0 4.86 6.342 5.296 6.99h-2.406c-.342-.498-4.914-6.617-4.914-6.617h-4.878v6.62h-1.92V22.343zm1.92 8.654h3.994c3.357 0 5.635-.813 5.635-3.546 0-2.08-1.593-3.317-4.034-3.317h-5.593v6.864zm30.648-8.623h1.947V37.52h9.63v1.818H55.446V22.375zm74.584 0h1.948V37.52h9.63v1.818h-11.578V22.375zm13.704 0h1.947V37.52h9.627v1.818H143.73V22.375zM80.327 31.65h-9.27v5.87h10.506v1.817H68.97V22.344H81.4v1.818H71.056v5.696h9.27v1.794zm105.967 0h-9.27v5.87h10.51v1.817H174.94V22.344h12.43v1.818H177.02v5.696h9.27v1.794zm-59.897 0h-9.27v5.87h10.508v1.817H115.04V22.344h12.43v1.818h-10.344v5.696h9.27v1.794zm-31.88 7.794l-6.05-17.142h2.058l4.865 14.24 4.704-14.267h1.64s4.564 14.074 4.565 14.35l4.844-14.325 2.126.03-6.146 17.14h-1.76s-4.47-13.77-4.488-13.88l-4.72 13.854h-1.64zm62.757-.107v-16.99h1.825s10.636 13.52 10.72 13.675l-.016-13.7h1.865V39.34h-1.538l-11.02-14.036c.017.31.035 14.035.035 14.035h-1.874zm46.768-3.926c1.255 1.1 2.93 2.283 5.125 2.434 2.69.184 4.397-.794 4.55-2.752.17-2.196-2.138-2.977-4.245-3.368-3.946-.735-5.905-2.112-5.905-4.893 0-2.817 2.418-4.867 6.174-4.734 2.334.084 4.416 1.243 5.363 2.1l-1.13 1.47c-1.44-1.315-3.03-1.806-4.378-1.867-2.477-.113-4.13.826-4.13 2.814 0 1.57.94 2.572 4.743 3.396 3.244.705 5.63 1.837 5.385 5.233-.186 2.584-2.6 4.713-7.02 4.37-2.13-.167-4.193-1.387-5.692-2.763l1.163-1.438zm-14.108 0c1.256 1.1 2.93 2.283 5.126 2.434 2.69.184 4.396-.794 4.55-2.752.17-2.196-2.138-2.977-4.245-3.368-3.947-.735-5.906-2.112-5.906-4.893 0-2.817 2.416-4.867 6.172-4.734 2.334.084 4.383 1.243 5.333 2.1l-1.07 1.5c-1.163-1.225-3.062-1.836-4.408-1.897-2.476-.113-4.13.826-4.13 2.814 0 1.57.94 2.572 4.743 3.396 3.243.705 5.63 1.837 5.385 5.233-.185 2.584-2.7 4.86-7.02 4.37-2.098-.24-4.3-1.4-5.694-2.763l1.165-1.438z"/><text transform="translate(11.358 69.9)" font-family="'HelveticaNeue-Light', Helvetica, sans-serif" font-size="11" fill="333333">a member of Circle Health Partners, Inc.</text></svg>
