<svg xmlns="http://www.w3.org/2000/svg" width="268.743" height="67.365" viewBox="0 0 268.74271 67.364804" enable-background="new 0 0 228 98.799"><defs><filter id="e" color-interpolation-filters="sRGB"><feFlood flood-opacity="1" flood-color="#3776AF" result="flood"/><feComposite in="flood" in2="SourceGraphic" operator="in" result="composite1"/><feGaussianBlur in="composite1" stdDeviation="1" result="blur"/><feOffset result="offset"/><feComposite in="SourceGraphic" in2="offset" result="composite2"/></filter><filter id="a" color-interpolation-filters="sRGB"><feFlood flood-opacity=".129" flood-color="#000" result="flood"/><feComposite in="flood" in2="SourceGraphic" operator="in" result="composite1"/><feGaussianBlur in="composite1" stdDeviation="1" result="blur"/><feOffset result="offset"/><feComposite in="SourceGraphic" in2="offset" result="composite2"/></filter></defs><g transform="translate(21.56 1.208)" filter="url(#a)"><radialGradient id="b" cx="676.188" cy="583.463" r="23.822" gradientTransform="translate(-592 -551.07)" gradientUnits="userSpaceOnUse"><stop offset=".084" stop-color="#E1F4FD"/><stop offset=".866" stop-color="#C9DDF3"/><stop offset=".95" stop-color="#B9D0EA"/><stop offset=".966" stop-color="#B5CDE8"/><stop offset="1" stop-color="#A4C1E2"/></radialGradient><circle cx="84.188" cy="32.394" r="23.822" fill="url(#b)"/><g opacity=".72"><radialGradient id="c" cx="703.114" cy="583.492" r="23.822" gradientTransform="translate(-592 -551.07)" gradientUnits="userSpaceOnUse"><stop offset="0" stop-color="#EDF8FE"/><stop offset=".832" stop-color="#D6E5F1"/><stop offset=".9" stop-color="#C9DFF1"/><stop offset=".95" stop-color="#BCD9F2"/><stop offset="1" stop-color="#A5CBEC"/></radialGradient><circle cx="111.114" cy="32.422" r="23.822" fill="url(#c)"/></g><g opacity=".72"><radialGradient id="d" cx="730.723" cy="583.623" r="23.822" gradientTransform="translate(-592 -551.07)" gradientUnits="userSpaceOnUse"><stop offset="0" stop-color="#F9F6C1"/><stop offset=".748" stop-color="#FCF9CE"/><stop offset=".789" stop-color="#FCF8C4"/><stop offset=".862" stop-color="#FEF6AA"/><stop offset=".883" stop-color="#FEF5A2"/><stop offset="1" stop-color="#E6D591"/></radialGradient><circle cx="138.722" cy="32.554" r="23.822" fill="url(#d)"/></g></g><path d="M41.894 39.87c-2.018 2.11-4.21 2.9-6.475 2.988-4.2.164-8.656-2.796-8.853-8.558-.177-5.254 3.646-9.074 8.98-9.074 2.57 0 4.75 1.142 6.247 2.732l-1.3 1.367c-.848-.88-2.8-2.34-4.82-2.34-4.42 0-7.152 2.9-7.152 7.312 0 4.11 3.35 6.9 6.896 6.83 1.885-.035 3.318-.75 5.236-2.44l1.235 1.173.003.01zm38.258 0c-2.018 2.11-4.21 2.9-6.474 2.988-4.197.164-8.654-2.796-8.85-8.558-.18-5.254 3.644-9.074 8.98-9.074 2.57 0 4.75 1.142 6.244 2.732l-1.308 1.367c-.847-.88-2.8-2.34-4.82-2.34-4.42 0-7.15 2.9-7.15 7.312 0 4.11 3.35 6.9 6.896 6.83 1.886-.035 3.32-.75 5.24-2.44l1.235 1.173.007.01zM45.96 25.553v16.994h-2.01V25.554h2.01zm3.48 0c.156-.023 4.212-.033 6.084-.033 3.156 0 4.393.424 5.563 1.302 1.205.905 1.822 2.375 1.822 3.45 0 2.34-.946 4.782-4.65 5.286 0 0 4.86 6.342 5.296 6.99H61.15c-.34-.498-4.913-6.617-4.913-6.617H51.36v6.62h-1.92V25.555zm1.92 8.654h3.994c3.357 0 5.635-.813 5.635-3.546 0-2.08-1.595-3.31-4.035-3.31h-5.592v6.86l-.004-.002zm30.648-8.623h1.947V40.73h9.63v1.818h-11.57V25.585h-.007zm74.583 0h1.95V40.73h9.63v1.818h-11.58V25.584zm13.707 0h1.947V40.73h9.62v1.818h-11.57V25.585h.003zM106.89 34.86h-9.27v5.87h10.507v1.817H95.534V25.554h12.43v1.818H97.62v5.694h9.27v1.794zm105.968 0h-9.27v5.87h10.51v1.817h-12.595V25.554h12.43v1.818h-10.35v5.694h9.27v1.794h.005zm-59.898 0h-9.27v5.87h10.507v1.817h-12.594V25.554h12.43v1.818H143.69v5.694h9.27v1.794zm-31.88 7.794l-6.05-17.142h2.06l4.864 14.24 4.703-14.27h1.64s4.564 14.075 4.565 14.353l4.842-14.325 2.124.03-6.147 17.14h-1.76s-4.47-13.77-4.486-13.88l-4.72 13.854h-1.642.01zm62.757-.107v-16.99h1.826s10.63 13.52 10.72 13.675l-.022-13.7h1.866v17.02h-1.538l-11.02-14.037c.016.312.034 14.035.034 14.035h-1.872l.01-.003zm46.77-3.926c1.254 1.1 2.93 2.29 5.124 2.44 2.69.185 4.4-.795 4.55-2.753.174-2.196-2.136-2.977-4.242-3.368-3.945-.735-5.904-2.11-5.904-4.895 0-2.817 2.418-4.867 6.174-4.734 2.34.085 4.42 1.244 5.367 2.103l-1.13 1.47c-1.44-1.315-3.03-1.806-4.378-1.867-2.48-.112-4.13.827-4.13 2.815 0 1.57.94 2.57 4.74 3.397 3.245.706 5.63 1.838 5.388 5.234-.188 2.585-2.602 4.714-7.02 4.37-2.132-.166-4.194-1.39-5.693-2.764l1.164-1.437-.008-.008zm-14.11 0c1.257 1.1 2.93 2.29 5.128 2.44 2.688.185 4.396-.795 4.55-2.753.17-2.196-2.138-2.977-4.245-3.368-3.947-.735-5.906-2.11-5.906-4.895 0-2.817 2.41-4.867 6.17-4.734 2.33.085 4.38 1.244 5.33 2.103l-1.068 1.5c-1.164-1.227-3.062-1.836-4.408-1.897-2.478-.112-4.13.827-4.13 2.815 0 1.57.938 2.57 4.74 3.397 3.243.706 5.632 1.838 5.386 5.234-.186 2.585-2.7 4.86-7.02 4.37-2.1-.24-4.3-1.4-5.693-2.764l1.166-1.437.003-.008z" fill="#fff" filter="url(#e)"/></svg>
