<svg xmlns="http://www.w3.org/2000/svg" width="215.609" height="47.804" viewBox="0 0 215.609 47.804"><radialGradient id="a" cx="79.185" cy="23.822" r="23.822" gradientUnits="userSpaceOnUse"><stop offset=".084" stop-color="#E1F4FD"/><stop offset=".866" stop-color="#C9DDF3"/><stop offset=".95" stop-color="#B9D0EA"/><stop offset=".966" stop-color="#B5CDE8"/><stop offset="1" stop-color="#A4C1E2"/></radialGradient><circle fill="url(#a)" cx="79.185" cy="23.823" r="23.822"/><g opacity=".72"><radialGradient id="b" cx="106.111" cy="23.851" r="23.823" gradientUnits="userSpaceOnUse"><stop offset="0" stop-color="#EDF8FE"/><stop offset=".832" stop-color="#D6E5F1"/><stop offset=".9" stop-color="#C9DFF1"/><stop offset=".95" stop-color="#BCD9F2"/><stop offset="1" stop-color="#A5CBEC"/></radialGradient><circle fill="url(#b)" cx="106.111" cy="23.851" r="23.822"/></g><g opacity=".72"><radialGradient id="c" cx="133.719" cy="23.982" r="23.822" gradientUnits="userSpaceOnUse"><stop offset="0" stop-color="#F9F6C1"/><stop offset=".748" stop-color="#FCF9CE"/><stop offset=".789" stop-color="#FCF8C4"/><stop offset=".862" stop-color="#FEF6AA"/><stop offset=".883" stop-color="#FEF5A2"/><stop offset="1" stop-color="#E6D591"/></radialGradient><circle fill="url(#c)" cx="133.719" cy="23.983" r="23.822"/></g><path fill="#244A81" d="M15.33 30.09c-2.018 2.112-4.21 2.903-6.475 2.99-4.197.164-8.654-2.796-8.85-8.558-.177-5.254 3.645-9.074 8.98-9.074 2.57 0 4.75 1.14 6.247 2.732l-1.3 1.367c-.847-.878-2.798-2.338-4.82-2.338-4.42 0-7.152 2.9-7.152 7.31 0 4.11 3.35 6.9 6.896 6.83 1.886-.036 3.32-.75 5.238-2.44l1.235 1.172zm38.258 0c-2.018 2.112-4.21 2.903-6.474 2.99-4.197.164-8.654-2.796-8.85-8.558-.178-5.254 3.644-9.074 8.98-9.074 2.57 0 4.75 1.14 6.245 2.732l-1.31 1.367c-.845-.878-2.797-2.338-4.82-2.338-4.42 0-7.15 2.9-7.15 7.31 0 4.11 3.35 6.9 6.896 6.83 1.886-.036 3.32-.75 5.24-2.44l1.236 1.172zM19.396 15.774V32.77h-2.01V15.774h2.01zm3.48 0c.156-.023 4.212-.033 6.084-.033 3.156 0 4.392.43 5.563 1.3 1.205.91 1.822 2.38 1.822 3.45 0 2.35-.944 4.79-4.648 5.29 0 0 4.86 6.34 5.296 6.99h-2.406c-.342-.5-4.914-6.62-4.914-6.62h-4.878v6.62h-1.92V15.777zm1.92 8.653h3.994c3.357 0 5.635-.813 5.635-3.546 0-2.08-1.593-3.31-4.034-3.31H24.8v6.863zm30.648-8.622h1.947V30.95h9.63v1.82H55.45V15.805zm74.584 0h1.948V30.95h9.63v1.82h-11.578V15.805zm13.704 0h1.947V30.95h9.62v1.82h-11.57V15.805zm-63.405 9.277h-9.27v5.868h10.506v1.82H68.97V15.774H81.4v1.818H71.056v5.696h9.27v1.793zm105.967 0h-9.27v5.868h10.51v1.82H174.94V15.774h12.43v1.818h-10.35v5.696h9.27v1.793zm-59.897 0h-9.27v5.868h10.508v1.82H115.04V15.774h12.43v1.818h-10.344v5.696h9.27v1.793zm-31.88 7.792l-6.05-17.142h2.058l4.865 14.24 4.704-14.267h1.64s4.564 14.074 4.565 14.35l4.84-14.325 2.124.03-6.147 17.14h-1.76s-4.47-13.77-4.488-13.88l-4.72 13.854h-1.64zm62.757-.106V15.776h1.825s10.63 13.52 10.72 13.676l-.02-13.7h1.863V32.77h-1.538l-11.02-14.035c.016.31.034 14.035.034 14.035h-1.874zm46.768-3.928c1.255 1.1 2.93 2.282 5.125 2.433 2.69.184 4.397-.794 4.55-2.752.17-2.19-2.138-2.97-4.245-3.36-3.946-.736-5.905-2.113-5.905-4.894 0-2.817 2.418-4.867 6.174-4.734 2.34.084 4.42 1.243 5.37 2.1l-1.13 1.47c-1.44-1.315-3.03-1.806-4.38-1.867-2.477-.112-4.13.827-4.13 2.815 0 1.57.94 2.572 4.743 3.396 3.244.705 5.63 1.837 5.385 5.233-.186 2.583-2.6 4.712-7.02 4.37-2.13-.168-4.193-1.388-5.692-2.764l1.163-1.44zm-14.108 0c1.256 1.1 2.93 2.282 5.126 2.433 2.69.184 4.396-.794 4.55-2.752.17-2.19-2.138-2.97-4.245-3.36-3.947-.736-5.906-2.113-5.906-4.894 0-2.817 2.41-4.867 6.17-4.734 2.33.084 4.38 1.243 5.33 2.1l-1.07 1.5c-1.164-1.225-3.06-1.836-4.41-1.897-2.475-.112-4.13.827-4.13 2.815 0 1.57.94 2.572 4.744 3.396 3.242.705 5.63 1.837 5.384 5.233-.185 2.583-2.7 4.86-7.02 4.37-2.098-.24-4.3-1.4-5.694-2.764l1.165-1.44z"/></svg>
