<?xml version="1.0" encoding="UTF-8" standalone="no"?>
<!-- Generator: Adobe Illustrator 16.0.5, SVG Export Plug-In . SVG Version: 6.00 Build 0)  -->

<svg
   xmlns:dc="http://purl.org/dc/elements/1.1/"
   xmlns:cc="http://creativecommons.org/ns#"
   xmlns:rdf="http://www.w3.org/1999/02/22-rdf-syntax-ns#"
   xmlns:svg="http://www.w3.org/2000/svg"
   xmlns="http://www.w3.org/2000/svg"
   xmlns:sodipodi="http://sodipodi.sourceforge.net/DTD/sodipodi-0.dtd"
   xmlns:inkscape="http://www.inkscape.org/namespaces/inkscape"
   version="1.1"
   id="Layer_1"
   x="0px"
   y="0px"
   width="268.74271"
   height="67.364807"
   viewBox="0 0 268.74271 67.364804"
   enable-background="new 0 0 228 98.799"
   xml:space="preserve"
   inkscape:version="0.91 r13725"
   sodipodi:docname="CircleWellness-logo.svg"><metadata
     id="metadata73"><rdf:RDF><cc:Work
         rdf:about=""><dc:format>image/svg+xml</dc:format><dc:type
           rdf:resource="http://purl.org/dc/dcmitype/StillImage" /><dc:title></dc:title></cc:Work></rdf:RDF></metadata><defs
     id="defs71"><filter
       style="color-interpolation-filters:sRGB;"
       inkscape:label="Drop Shadow"
       id="filter3473"><feFlood
         flood-opacity="1"
         flood-color="rgb(55,118,175)"
         result="flood"
         id="feFlood3475" /><feComposite
         in="flood"
         in2="SourceGraphic"
         operator="in"
         result="composite1"
         id="feComposite3477" /><feGaussianBlur
         in="composite1"
         stdDeviation="1"
         result="blur"
         id="feGaussianBlur3479" /><feOffset
         dx="0"
         dy="0"
         result="offset"
         id="feOffset3481" /><feComposite
         in="SourceGraphic"
         in2="offset"
         operator="over"
         result="composite2"
         id="feComposite3483" /></filter><filter
       style="color-interpolation-filters:sRGB;"
       inkscape:label="Drop Shadow"
       id="filter3557"><feFlood
         flood-opacity="0.129412"
         flood-color="rgb(0,0,0)"
         result="flood"
         id="feFlood3559" /><feComposite
         in="flood"
         in2="SourceGraphic"
         operator="in"
         result="composite1"
         id="feComposite3561" /><feGaussianBlur
         in="composite1"
         stdDeviation="1"
         result="blur"
         id="feGaussianBlur3563" /><feOffset
         dx="0"
         dy="0"
         result="offset"
         id="feOffset3565" /><feComposite
         in="SourceGraphic"
         in2="offset"
         operator="over"
         result="composite2"
         id="feComposite3567" /></filter></defs><sodipodi:namedview
     pagecolor="#ffffff"
     bordercolor="#666666"
     borderopacity="1"
     objecttolerance="10"
     gridtolerance="10"
     guidetolerance="10"
     inkscape:pageopacity="0"
     inkscape:pageshadow="2"
     inkscape:window-width="1903"
     inkscape:window-height="1024"
     id="namedview69"
     showgrid="false"
     fit-margin-top="5"
     fit-margin-left="5"
     fit-margin-right="5"
     fit-margin-bottom="5"
     inkscape:zoom="4.17193"
     inkscape:cx="145.61069"
     inkscape:cy="7.1690022"
     inkscape:window-x="0"
     inkscape:window-y="0"
     inkscape:window-maximized="0"
     inkscape:current-layer="Layer_1" /><g
     id="circles"
     style="filter:url(#filter3557)"
     transform="translate(21.560795,1.2083998)"><radialGradient
       id="SVGID_1_"
       cx="676.1875"
       cy="583.46307"
       r="23.8223"
       gradientTransform="translate(-592,-551.0703)"
       gradientUnits="userSpaceOnUse"><stop
         offset="0.084"
         style="stop-color:#E1F4FD"
         id="stop24" /><stop
         offset="0.866"
         style="stop-color:#C9DDF3"
         id="stop26" /><stop
         offset="0.95"
         style="stop-color:#B9D0EA"
         id="stop28" /><stop
         offset="0.966"
         style="stop-color:#B5CDE8"
         id="stop30" /><stop
         offset="1"
         style="stop-color:#A4C1E2"
         id="stop32" /></radialGradient><circle
       cx="84.188004"
       cy="32.394001"
       r="23.822001"
       id="circle34"
       style="fill:url(#SVGID_1_)" /><g
       id="g36"
       style="opacity:0.72000002"><radialGradient
         id="SVGID_2_"
         cx="703.11432"
         cy="583.49237"
         r="23.8223"
         gradientTransform="translate(-592,-551.0703)"
         gradientUnits="userSpaceOnUse"><stop
           offset="0"
           style="stop-color:#EDF8FE"
           id="stop39" /><stop
           offset="0.832"
           style="stop-color:#D6E5F1"
           id="stop41" /><stop
           offset="0.9"
           style="stop-color:#C9DFF1"
           id="stop43" /><stop
           offset="0.95"
           style="stop-color:#BCD9F2"
           id="stop45" /><stop
           offset="1"
           style="stop-color:#A5CBEC"
           id="stop47" /></radialGradient><circle
         cx="111.114"
         cy="32.422001"
         r="23.822001"
         id="circle49"
         style="fill:url(#SVGID_2_)" /></g><g
       id="g51"
       style="opacity:0.72000002"><radialGradient
         id="SVGID_3_"
         cx="730.72272"
         cy="583.62329"
         r="23.8218"
         gradientTransform="translate(-592,-551.0703)"
         gradientUnits="userSpaceOnUse"><stop
           offset="0"
           style="stop-color:#F9F6C1"
           id="stop54" /><stop
           offset="0.748"
           style="stop-color:#FCF9CE"
           id="stop56" /><stop
           offset="0.789"
           style="stop-color:#FCF8C4"
           id="stop58" /><stop
           offset="0.862"
           style="stop-color:#FEF6AA"
           id="stop60" /><stop
           offset="0.883"
           style="stop-color:#FEF5A2"
           id="stop62" /><stop
           offset="1"
           style="stop-color:#E6D591"
           id="stop64" /></radialGradient><circle
         cx="138.722"
         cy="32.554001"
         r="23.822001"
         id="circle66"
         style="fill:url(#SVGID_3_)" /></g></g><path
     id="Circle_Wellness"
     d="m 41.893795,39.870399 c -2.018,2.11 -4.21,2.901 -6.475,2.988 -4.197,0.164 -8.654,-2.796 -8.851,-8.558 -0.177,-5.254 3.646,-9.074 8.98,-9.074 2.57,0 4.75,1.142 6.247,2.732 l -1.3,1.367 c -0.848,-0.879 -2.799,-2.34 -4.82,-2.34 -4.42,0 -7.152,2.9 -7.152,7.312 0,4.11 3.351,6.899 6.896,6.83 1.886,-0.035 3.319,-0.75 5.237,-2.44 l 1.235,1.173 0.003,0.01 z m 38.258,0 c -2.018,2.11 -4.21,2.901 -6.474,2.988 -4.197,0.164 -8.654,-2.796 -8.85,-8.558 -0.179,-5.254 3.644,-9.074 8.979,-9.074 2.57,0 4.75,1.142 6.245,2.732 l -1.308,1.367 c -0.847,-0.879 -2.799,-2.34 -4.82,-2.34 -4.42,0 -7.15,2.9 -7.15,7.312 0,4.11 3.351,6.899 6.896,6.83 1.886,-0.035 3.319,-0.75 5.24,-2.44 l 1.235,1.173 0.007,0.01 z m -34.192,-14.317 0,16.994 -2.011,0 0,-16.993 2.011,-0.001 0,0 z m 3.48,0 c 0.156,-0.023 4.212,-0.033 6.084,-0.033 3.156,0 4.393,0.424 5.563,1.302 1.205,0.905 1.822,2.375 1.822,3.45 0,2.34 -0.944,4.782 -4.648,5.286 0,0 4.86,6.342 5.296,6.99 l -2.406,0 c -0.342,-0.498 -4.914,-6.617 -4.914,-6.617 l -4.878,0 0,6.62 -1.92,0 0,-16.993 10e-4,-0.005 z m 1.92,8.654 3.994,0 c 3.357,0 5.635,-0.813 5.635,-3.546 0,-2.08 -1.593,-3.312 -4.033,-3.312 l -5.592,0 0,6.861 -0.004,-0.003 z m 30.648,-8.623 1.947,0 0,15.146 9.629995,0 0,1.818 -11.570995,0 0,-16.963 -0.006,-10e-4 z m 74.582995,0 1.949,0 0,15.146 9.629,0 0,1.818 -11.578,0 0,-16.964 0,0 z m 13.705,0 1.947,0 0,15.146 9.62,0 0,1.818 -11.569,0 0,-16.963 0.002,-10e-4 z m -63.405,9.276 -9.269998,0 0,5.87 10.505998,0 0,1.817 -12.592998,0 0,-16.993 12.429998,0 0,1.818 -10.343998,0 0,5.694 9.269998,0 10e-4,1.794 0,0 z m 105.967,0 -9.271,0 0,5.87 10.511,0 0,1.817 -12.595,0 0,-16.993 12.431,0 0,1.818 -10.351,0 0,5.694 9.271,0 0,1.794 0.004,0 z m -59.898,0 -9.271,0 0,5.87 10.508,0 0,1.817 -12.594,0 0,-16.993 12.431,0 0,1.818 -10.345,0 0,5.694 9.271,0 0,1.794 0,0 z m -31.879,7.794 -6.051,-17.142 2.059,0 4.865,14.24 4.703,-14.269 1.641,0 c 0,0 4.563,14.074 4.564,14.352 l 4.842,-14.325 2.124,0.03 -6.147,17.14 -1.76,0 c 0,0 -4.471,-13.77 -4.488,-13.88 l -4.72,13.854 -1.642,0 0.01,0 z m 62.756,-0.107 0,-16.99 1.826,0 c 0,0 10.629,13.521 10.719,13.675 l -0.021,-13.7 1.864,0 0,17.019 -1.538,0 -11.021,-14.036 c 0.017,0.312 0.035,14.035 0.035,14.035 l -1.873,0 0.009,-0.003 z m 46.769,-3.926 c 1.255,1.1 2.931,2.288 5.125,2.438 2.69,0.185 4.397,-0.795 4.55,-2.753 0.172,-2.196 -2.138,-2.977 -4.244,-3.368 -3.945,-0.734 -5.904,-2.111 -5.904,-4.894 0,-2.817 2.418,-4.867 6.174,-4.734 2.34,0.084 4.42,1.243 5.367,2.102 l -1.129,1.47 c -1.44,-1.315 -3.03,-1.806 -4.379,-1.867 -2.479,-0.112 -4.129,0.827 -4.129,2.815 0,1.568 0.938,2.57 4.74,3.396 3.244,0.706 5.63,1.838 5.387,5.234 -0.188,2.584 -2.602,4.713 -7.021,4.37 -2.131,-0.167 -4.193,-1.389 -5.692,-2.765 l 1.163,-1.437 -0.008,-0.007 z m -14.108,0 c 1.256,1.1 2.93,2.288 5.127,2.438 2.688,0.185 4.396,-0.795 4.549,-2.753 0.17,-2.196 -2.137,-2.977 -4.244,-3.368 -3.947,-0.734 -5.906,-2.111 -5.906,-4.894 0,-2.817 2.41,-4.867 6.17,-4.734 2.33,0.084 4.38,1.243 5.33,2.102 l -1.068,1.5 c -1.164,-1.227 -3.062,-1.836 -4.408,-1.897 -2.478,-0.112 -4.131,0.827 -4.131,2.815 0,1.568 0.939,2.57 4.742,3.396 3.242,0.706 5.631,1.838 5.385,5.234 -0.186,2.584 -2.699,4.858 -7.021,4.37 -2.099,-0.24 -4.3,-1.4 -5.692,-2.765 l 1.164,-1.437 0.003,-0.007 z"
     inkscape:connector-curvature="0"
     style="fill:#ffffff;filter:url(#filter3473)" /></svg>
