<svg xmlns="http://www.w3.org/2000/svg" width="228" height="63.715" viewBox="0 0 228 63.715"><filter id="e" filterRes="1000" color-interpolation-filters="sRGB"><feFlood flood-opacity=".384" flood-color="#4C769E" result="flood"/><feComposite in="flood" in2="SourceGraphic" operator="in" result="composite1"/><feGaussianBlur in="composite1" stdDeviation="1" result="blur"/><feOffset result="offset"/><feComposite in="SourceGraphic" in2="offset" result="composite2"/></filter><filter id="a" filterRes="1000" color-interpolation-filters="sRGB"><feFlood flood-opacity=".2" flood-color="#000" result="flood"/><feComposite in="flood" in2="SourceGraphic" operator="in" result="composite1"/><feGaussianBlur in="composite1" stdDeviation="1" result="blur"/><feOffset result="offset"/><feComposite in="SourceGraphic" in2="offset" result="composite2"/></filter><g filter="url(#a)"><radialGradient id="b" cx="676.188" cy="583.463" r="23.822" gradientTransform="translate(-592 -551.07)" gradientUnits="userSpaceOnUse"><stop offset=".084" stop-color="#E1F4FD"/><stop offset=".866" stop-color="#C9DDF3"/><stop offset=".95" stop-color="#B9D0EA"/><stop offset=".966" stop-color="#B5CDE8"/><stop offset="1" stop-color="#A4C1E2"/></radialGradient><circle fill="url(#b)" cx="84.188" cy="32.394" r="23.822"/><g opacity=".72"><radialGradient id="c" cx="703.114" cy="583.491" r="23.822" gradientTransform="translate(-592 -551.07)" gradientUnits="userSpaceOnUse"><stop offset="0" stop-color="#EDF8FE"/><stop offset=".832" stop-color="#D6E5F1"/><stop offset=".9" stop-color="#C9DFF1"/><stop offset=".95" stop-color="#BCD9F2"/><stop offset="1" stop-color="#A5CBEC"/></radialGradient><circle fill="url(#c)" cx="111.114" cy="32.422" r="23.822"/></g><g opacity=".72"><radialGradient id="d" cx="730.723" cy="583.623" r="23.822" gradientTransform="translate(-592 -551.07)" gradientUnits="userSpaceOnUse"><stop offset="0" stop-color="#F9F6C1"/><stop offset=".748" stop-color="#FCF9CE"/><stop offset=".789" stop-color="#FCF8C4"/><stop offset=".862" stop-color="#FEF6AA"/><stop offset=".883" stop-color="#FEF5A2"/><stop offset="1" stop-color="#E6D591"/></radialGradient><circle fill="url(#d)" cx="138.722" cy="32.554" r="23.822"/></g></g><path fill="#FFF" filter="url(#e)" d="M20.333 38.662c-2.018 2.11-4.21 2.9-6.475 2.988-4.197.164-8.654-2.796-8.85-8.558-.178-5.254 3.645-9.074 8.98-9.074 2.57 0 4.75 1.142 6.246 2.732l-1.3 1.367c-.848-.88-2.8-2.34-4.82-2.34-4.42 0-7.152 2.9-7.152 7.312 0 4.11 3.35 6.898 6.896 6.83 1.886-.036 3.32-.75 5.237-2.44l1.235 1.172.003.01zm38.258 0c-2.017 2.11-4.21 2.9-6.473 2.988-4.197.164-8.654-2.796-8.85-8.558-.18-5.254 3.644-9.074 8.98-9.074 2.57 0 4.75 1.142 6.244 2.732l-1.307 1.367c-.847-.88-2.8-2.34-4.82-2.34-4.42 0-7.15 2.9-7.15 7.312 0 4.11 3.35 6.898 6.896 6.83 1.885-.036 3.318-.75 5.24-2.44l1.234 1.172.007.01zM24.4 24.345V41.34h-2.012V24.345h2.01zm3.48 0c.155-.023 4.21-.033 6.083-.033 3.156 0 4.393.424 5.563 1.302 1.205.905 1.822 2.375 1.822 3.45 0 2.34-.944 4.782-4.648 5.286 0 0 4.86 6.342 5.296 6.99H39.59c-.342-.498-4.914-6.617-4.914-6.617h-4.878v6.62h-1.92V24.345zM29.8 33h3.993c3.357 0 5.635-.814 5.635-3.547 0-2.08-1.593-3.312-4.033-3.312h-5.592v6.862L29.8 33zm30.647-8.624h1.947v15.146h9.63v1.818h-11.57V24.377h-.007zm74.583 0h1.95v15.146h9.628v1.818H135.03V24.376zm13.705 0h1.947v15.146h9.62v1.818h-11.57V24.377h.003zM85.33 33.652h-9.27v5.87h10.506v1.817H73.973V24.345h12.43v1.818H76.06v5.694h9.27v1.794zm105.967 0h-9.27v5.87h10.51v1.817h-12.595V24.345h12.43v1.818h-10.35v5.694h9.27v1.794h.005zm-59.898 0h-9.272v5.87h10.508v1.817h-12.594V24.345h12.43v1.818H122.13v5.694h9.27v1.794zm-31.88 7.794l-6.05-17.142h2.058l4.865 14.24 4.703-14.27h1.64s4.564 14.075 4.565 14.353l4.843-14.325 2.124.03-6.147 17.14h-1.76s-4.47-13.77-4.488-13.88l-4.72 13.854H99.51h.01zm62.756-.107V24.35h1.826s10.63 13.52 10.72 13.674l-.022-13.7h1.864v17.02h-1.538l-11.02-14.037c.016.312.034 14.035.034 14.035h-1.873l.01-.003zm46.77-3.927c1.254 1.1 2.93 2.288 5.124 2.438 2.69.186 4.397-.794 4.55-2.752.172-2.196-2.138-2.977-4.244-3.368-3.945-.734-5.904-2.11-5.904-4.894 0-2.817 2.418-4.867 6.174-4.734 2.34.084 4.42 1.243 5.367 2.102l-1.13 1.47c-1.44-1.315-3.03-1.806-4.378-1.867-2.48-.112-4.13.827-4.13 2.815 0 1.568.94 2.57 4.74 3.396 3.245.706 5.63 1.838 5.388 5.234-.188 2.584-2.602 4.713-7.02 4.37-2.132-.167-4.194-1.39-5.693-2.765l1.163-1.437-.008-.007zm-14.11 0c1.257 1.1 2.93 2.288 5.128 2.438 2.688.186 4.396-.794 4.55-2.752.17-2.196-2.138-2.977-4.245-3.368-3.948-.734-5.907-2.11-5.907-4.894 0-2.817 2.41-4.867 6.17-4.734 2.33.084 4.38 1.243 5.33 2.102l-1.068 1.5c-1.164-1.227-3.062-1.836-4.408-1.897-2.478-.112-4.13.827-4.13 2.815 0 1.568.938 2.57 4.74 3.396 3.243.706 5.632 1.838 5.386 5.234-.186 2.584-2.7 4.858-7.02 4.37-2.1-.24-4.3-1.4-5.693-2.765l1.164-1.437.003-.007z"/></svg>
