<svg xmlns="http://www.w3.org/2000/svg" width="228" height="98.799" viewBox="0 0 228 98.799"><filter id="a"><feOffset in="SourceGraphic" result="offOut"/><feColorMatrix values="0.0 0.0 0.0 0.0 0.0 0.0 0.0 0.0 0.0 0.0 0.0 0.0 0.0 0.2 0.0 0.0 0.0 0.1 0.1 0.0" in="offOut" result="matrixOut"/><feGaussianBlur stdDeviation="1" in="matrixOut" result="blurOut"/><feBlend in="SourceGraphic" in2="blurOut"/></filter><filter id="b"><feGaussianBlur stdDeviation="5" result="coloredBlur"/><feMerge><feMergeNode in="coloredBlur"/><feMergeNode in="SourceGraphic"/></feMerge></filter><path fill="#FFF" filter="url(#a)" d="M29.062 68l-5.22 18.478h-2.538l-3.8-13.505c-.165-.575-.264-1.202-.298-1.88h-.052c-.05.635-.163 1.253-.335 1.854l-3.83 13.53h-2.51L5.068 68h2.384l3.93 14.174c.164.593.268 1.21.31 1.855h.065c.043-.457.176-1.076.4-1.857L16.24 68h2.075l3.917 14.276c.138.49.24 1.065.31 1.728h.052c.034-.447.15-1.04.348-1.778L26.717 68h2.345zm12.435 12.408H32.18c.035 1.47.43 2.604 1.187 3.402s1.796 1.198 3.118 1.198c1.486 0 2.853-.49 4.098-1.47v1.985c-1.16.842-2.692 1.263-4.6 1.263-1.864 0-3.33-.6-4.395-1.798s-1.598-2.884-1.598-5.058c0-2.053.582-3.727 1.746-5.02 1.164-1.292 2.61-1.94 4.336-1.94s3.062.56 4.008 1.677c.944 1.117 1.417 2.667 1.417 4.65v1.11zm-2.165-1.79c-.008-1.22-.303-2.17-.882-2.85-.58-.678-1.386-1.018-2.416-1.018-.997 0-1.843.357-2.54 1.07-.694.713-1.124 1.645-1.287 2.796h7.125zm7.475 7.86h-2.113V66.943h2.113v19.535zm6.39 0h-2.113V66.943h2.113v19.535zm15.232 0h-2.115v-7.525c0-2.8-1.022-4.2-3.066-4.2-1.058 0-1.933.396-2.624 1.19s-1.037 1.8-1.037 3.01v7.525h-2.114V73.282h2.113v2.19h.05c.997-1.666 2.44-2.5 4.33-2.5 1.443 0 2.548.467 3.31 1.398.766.933 1.148 2.28 1.148 4.04v8.068zm14.585-6.07H73.7c.034 1.47.43 2.604 1.186 3.402.756.8 1.795 1.198 3.118 1.198 1.486 0 2.852-.49 4.098-1.47v1.985c-1.16.842-2.693 1.263-4.6 1.263-1.865 0-3.33-.6-4.395-1.798-1.065-1.198-1.6-2.884-1.6-5.058 0-2.053.583-3.727 1.747-5.02 1.164-1.292 2.61-1.94 4.337-1.94 1.73 0 3.064.56 4.01 1.677s1.417 2.667 1.417 4.65v1.11zm-2.165-1.79c-.008-1.22-.302-2.17-.882-2.85s-1.385-1.018-2.416-1.018c-.997 0-1.843.357-2.538 1.07-.696.713-1.126 1.645-1.29 2.796h7.127zM85.413 86v-2.268c1.15.85 2.418 1.276 3.802 1.276 1.855 0 2.783-.62 2.783-1.855 0-.353-.08-.65-.238-.896-.16-.245-.375-.462-.646-.65-.27-.19-.59-.36-.954-.51s-.758-.307-1.18-.47c-.583-.232-1.097-.467-1.54-.703s-.81-.502-1.107-.8c-.296-.295-.52-.632-.67-1.01-.15-.38-.226-.82-.226-1.328 0-.618.143-1.166.426-1.643s.66-.876 1.134-1.198 1.012-.565 1.617-.73 1.23-.244 1.875-.244c1.14 0 2.163.2 3.064.595v2.14c-.97-.636-2.087-.954-3.35-.954-.396 0-.752.047-1.07.137-.317.09-.59.217-.817.38-.23.163-.404.36-.528.587-.126.228-.19.48-.19.754 0 .343.063.63.19.863.123.23.306.44.546.62.24.18.533.343.877.49.343.144.734.304 1.172.476.584.223 1.108.453 1.572.69s.86.5 1.186.798c.326.296.578.638.754 1.024s.265.846.265 1.38c0 .65-.145 1.22-.432 1.7-.287.48-.672.88-1.152 1.197-.48.318-1.036.555-1.663.71-.627.154-1.284.23-1.97.23-1.36.003-2.537-.26-3.533-.783zm11.198 0v-2.268c1.15.85 2.42 1.276 3.8 1.276 1.857 0 2.785-.62 2.785-1.855 0-.353-.08-.65-.238-.896-.16-.245-.374-.462-.645-.65-.27-.19-.587-.36-.952-.51s-.758-.307-1.18-.47c-.584-.232-1.097-.467-1.54-.703s-.81-.502-1.107-.8c-.295-.295-.52-.632-.67-1.01-.15-.38-.225-.82-.225-1.328 0-.618.142-1.166.425-1.643.284-.477.662-.876 1.135-1.198.472-.322 1.01-.565 1.617-.73.605-.162 1.23-.244 1.874-.244 1.142 0 2.164.2 3.066.595v2.14c-.97-.636-2.088-.954-3.35-.954-.397 0-.753.047-1.07.137-.318.09-.59.217-.818.38s-.404.36-.528.587c-.125.228-.187.48-.187.754 0 .343.062.63.187.863.124.23.307.44.548.62.24.18.532.343.876.49.345.144.735.304 1.174.476.584.223 1.108.453 1.572.69s.858.5 1.186.798c.326.296.577.638.754 1.024.176.387.264.846.264 1.38 0 .65-.144 1.22-.432 1.7-.288.48-.672.88-1.153 1.197-.48.318-1.036.555-1.663.71-.627.154-1.284.23-1.972.23-1.357.003-2.534-.26-3.53-.783zm18.647-.27v-2.55c.293.257.643.488 1.05.695.41.206.84.38 1.29.52.45.143.902.252 1.36.33.454.077.874.115 1.26.115 1.333 0 2.327-.247 2.983-.74.657-.494.985-1.205.985-2.133 0-.498-.11-.933-.328-1.302s-.52-.706-.908-1.012c-.39-.305-.846-.597-1.375-.876-.527-.28-1.098-.573-1.707-.883-.646-.326-1.247-.657-1.806-.992s-1.043-.704-1.455-1.108c-.413-.403-.737-.86-.974-1.372s-.355-1.11-.355-1.798c0-.842.187-1.574.556-2.197.37-.622.855-1.136 1.455-1.54.602-.403 1.287-.704 2.057-.9.768-.198 1.553-.298 2.352-.298 1.82 0 3.147.22 3.98.655v2.436c-1.09-.755-2.49-1.133-4.2-1.133-.473 0-.945.05-1.418.148s-.895.26-1.264.483-.67.51-.9.862c-.233.353-.35.78-.35 1.288 0 .473.087.88.265 1.225.176.344.436.657.78.94s.76.56 1.255.825c.494.266 1.062.558 1.707.876.662.326 1.29.67 1.883 1.03.592.36 1.11.76 1.56 1.2.444.437.8.922 1.06 1.455.263.532.394 1.143.394 1.83 0 .91-.178 1.68-.533 2.312-.357.63-.838 1.145-1.443 1.54s-1.305.68-2.094.856c-.79.175-1.625.264-2.5.264-.293 0-.654-.024-1.084-.07s-.868-.117-1.315-.207c-.445-.09-.87-.202-1.268-.335-.402-.13-.722-.278-.962-.44zm20.115 1.057c-1.95 0-3.506-.616-4.67-1.85-1.164-1.232-1.746-2.867-1.746-4.903 0-2.216.605-3.947 1.816-5.192 1.212-1.246 2.848-1.87 4.91-1.87 1.967 0 3.502.607 4.606 1.818 1.104 1.21 1.655 2.89 1.655 5.038 0 2.105-.594 3.79-1.783 5.058-1.19 1.268-2.785 1.9-4.786 1.9zm.155-12.036c-1.357 0-2.43.464-3.222 1.388-.79.924-1.185 2.197-1.185 3.82 0 1.563.4 2.797 1.198 3.698.8.902 1.868 1.354 3.208 1.354 1.366 0 2.416-.443 3.15-1.328.735-.885 1.103-2.144 1.103-3.776 0-1.648-.368-2.92-1.104-3.813-.733-.895-1.782-1.342-3.15-1.342zm11.907 11.73h-2.113V66.942h2.113v19.535zm14.948 0h-2.113v-2.09h-.053c-.876 1.6-2.233 2.397-4.07 2.397-3.146 0-4.718-1.873-4.718-5.618v-7.89h2.1v7.552c0 2.783 1.065 4.175 3.195 4.175 1.03 0 1.88-.382 2.545-1.142.666-.76 1-1.755 1-2.983V73.28h2.112v13.195zm10.386-.13c-.498.274-1.155.412-1.972.412-2.31 0-3.466-1.287-3.466-3.864v-7.81h-2.27v-1.804h2.27V70.06l2.113-.683v3.904h3.325v1.806h-3.324v7.436c0 .886.15 1.518.452 1.896.3.378.8.566 1.494.566.533 0 .992-.146 1.38-.438v1.805zm3.904-16.417c-.378 0-.7-.13-.967-.386-.267-.258-.4-.585-.4-.98s.134-.723.4-.985c.267-.26.59-.392.967-.392.387 0 .715.13.985.393.27.264.406.592.406.987 0 .378-.135.7-.405.966s-.598.4-.985.4zm1.03 16.546h-2.113V73.28h2.112v13.196zm9.794.31c-1.95 0-3.507-.618-4.67-1.85-1.165-1.234-1.747-2.87-1.747-4.905 0-2.216.604-3.947 1.815-5.192 1.212-1.246 2.848-1.87 4.91-1.87 1.967 0 3.502.607 4.606 1.818 1.104 1.21 1.655 2.89 1.655 5.04 0 2.104-.595 3.79-1.784 5.057-1.19 1.268-2.784 1.9-4.785 1.9zm.154-12.038c-1.357 0-2.43.463-3.222 1.387-.79.923-1.185 2.196-1.185 3.82 0 1.562.4 2.796 1.2 3.697.798.902 1.867 1.354 3.207 1.354 1.366 0 2.416-.442 3.15-1.327.735-.885 1.103-2.144 1.103-3.776 0-1.648-.367-2.92-1.103-3.813-.733-.895-1.782-1.342-3.15-1.342zm20.747 11.728h-2.113v-7.525c0-2.8-1.022-4.2-3.066-4.2-1.057 0-1.93.396-2.622 1.19-.692.796-1.038 1.8-1.038 3.01v7.525h-2.113V73.282h2.113v2.19h.052c.997-1.666 2.44-2.5 4.33-2.5 1.443 0 2.547.467 3.312 1.398.765.933 1.146 2.28 1.146 4.04v8.068zm3.183-.477v-2.268c1.15.85 2.418 1.276 3.802 1.276 1.855 0 2.783-.62 2.783-1.854 0-.353-.08-.65-.238-.896-.16-.245-.374-.462-.645-.65-.27-.19-.59-.36-.953-.51-.366-.15-.76-.307-1.18-.47-.585-.232-1.1-.467-1.54-.703-.443-.236-.81-.502-1.108-.8-.297-.295-.52-.632-.67-1.01-.15-.38-.226-.82-.226-1.328 0-.62.142-1.167.425-1.644s.66-.876 1.134-1.198 1.012-.565 1.617-.73 1.23-.244 1.876-.244c1.143 0 2.165.2 3.067.594v2.14c-.972-.636-2.088-.954-3.35-.954-.397 0-.753.046-1.07.136-.318.09-.59.217-.818.38s-.404.36-.528.587c-.125.228-.188.48-.188.754 0 .344.06.63.187.864.124.23.307.438.548.618.24.18.532.344.876.49.345.145.735.305 1.174.477.584.222 1.107.452 1.57.69s.86.5 1.187.797c.328.296.58.638.755 1.024s.265.847.265 1.38c0 .65-.146 1.22-.433 1.7-.288.48-.673.88-1.153 1.198-.48.318-1.035.555-1.662.71-.628.154-1.285.23-1.972.23-1.358.003-2.535-.26-3.532-.783z"/><g filter="url(#b)"><radialGradient id="c" cx="676.188" cy="583.463" r="23.822" gradientTransform="translate(-592 -551.07)" gradientUnits="userSpaceOnUse"><stop offset=".084" stop-color="#E1F4FD"/><stop offset=".866" stop-color="#C9DDF3"/><stop offset=".95" stop-color="#B9D0EA"/><stop offset=".966" stop-color="#B5CDE8"/><stop offset="1" stop-color="#A4C1E2"/></radialGradient><circle fill="url(#c)" cx="84.188" cy="32.394" r="23.822"/><g opacity=".72"><radialGradient id="d" cx="703.114" cy="583.492" r="23.822" gradientTransform="translate(-592 -551.07)" gradientUnits="userSpaceOnUse"><stop offset="0" stop-color="#EDF8FE"/><stop offset=".832" stop-color="#D6E5F1"/><stop offset=".9" stop-color="#C9DFF1"/><stop offset=".95" stop-color="#BCD9F2"/><stop offset="1" stop-color="#A5CBEC"/></radialGradient><circle fill="url(#d)" cx="111.114" cy="32.422" r="23.822"/></g><g opacity=".72"><radialGradient id="e" cx="730.723" cy="583.623" r="23.822" gradientTransform="translate(-592 -551.07)" gradientUnits="userSpaceOnUse"><stop offset="0" stop-color="#F9F6C1"/><stop offset=".748" stop-color="#FCF9CE"/><stop offset=".789" stop-color="#FCF8C4"/><stop offset=".862" stop-color="#FEF6AA"/><stop offset=".883" stop-color="#FEF5A2"/><stop offset="1" stop-color="#E6D591"/></radialGradient><circle fill="url(#e)" cx="138.722" cy="32.554" r="23.822"/></g></g><path fill="#FFF" filter="url(#a)" d="M20.333 38.662c-2.018 2.11-4.21 2.9-6.475 2.988-4.197.164-8.654-2.796-8.85-8.558-.178-5.254 3.645-9.074 8.98-9.074 2.57 0 4.75 1.142 6.246 2.732l-1.3 1.367c-.848-.88-2.8-2.34-4.82-2.34-4.42 0-7.152 2.9-7.152 7.312 0 4.11 3.35 6.897 6.896 6.83 1.886-.037 3.32-.75 5.237-2.44l1.235 1.17.003.01zm38.258 0c-2.016 2.11-4.21 2.9-6.472 2.988-4.197.164-8.654-2.796-8.85-8.558-.18-5.254 3.644-9.074 8.98-9.074 2.57 0 4.75 1.142 6.244 2.732l-1.307 1.367c-.847-.88-2.8-2.34-4.82-2.34-4.42 0-7.15 2.9-7.15 7.312 0 4.11 3.35 6.897 6.896 6.83 1.886-.037 3.32-.75 5.24-2.44l1.235 1.17.007.01zM24.4 24.345V41.34h-2.012V24.345h2.01zm3.48 0c.155-.023 4.21-.033 6.083-.033 3.156 0 4.393.424 5.563 1.302 1.205.905 1.822 2.375 1.822 3.45 0 2.34-.944 4.782-4.648 5.286 0 0 4.86 6.342 5.296 6.99H39.59c-.342-.498-4.914-6.617-4.914-6.617h-4.878v6.62h-1.92V24.345zM29.8 33h3.993c3.357 0 5.635-.814 5.635-3.547 0-2.08-1.593-3.312-4.033-3.312h-5.592v6.863L29.8 33zm30.647-8.624h1.947v15.146h9.63v1.818h-11.57V24.377h-.007zm74.583 0h1.95v15.146h9.628v1.818H135.03V24.376zm13.705 0h1.947v15.146h9.62v1.818h-11.57V24.377h.003zM85.33 33.652h-9.27v5.87h10.506v1.817H73.973V24.344h12.43v1.818H76.06v5.694h9.27v1.794zm105.967 0h-9.27v5.87h10.51v1.817h-12.595V24.344h12.43v1.818h-10.35v5.694h9.27v1.794h.005zm-59.898 0h-9.273v5.87h10.508v1.817H120.04V24.344h12.43v1.818h-10.34v5.694h9.27v1.794zm-31.88 7.794l-6.05-17.142h2.057l4.865 14.24 4.703-14.27h1.64S111.3 38.35 111.3 38.627l4.843-14.325 2.124.03-6.147 17.14h-1.76s-4.47-13.77-4.488-13.88l-4.72 13.854H99.51h.01zm62.755-.107V24.35h1.826s10.63 13.52 10.72 13.674l-.02-13.7h1.863v17.02h-1.538l-11.02-14.037c.016.312.034 14.035.034 14.035h-1.874l.01-.003zm46.77-3.928c1.254 1.1 2.93 2.288 5.124 2.438 2.69.186 4.396-.794 4.55-2.752.17-2.196-2.14-2.977-4.245-3.368-3.945-.734-5.904-2.11-5.904-4.894 0-2.817 2.42-4.867 6.175-4.734 2.34.084 4.42 1.243 5.367 2.102l-1.13 1.47c-1.44-1.315-3.03-1.806-4.378-1.867-2.48-.112-4.13.827-4.13 2.815 0 1.568.94 2.57 4.74 3.396 3.245.706 5.63 1.838 5.388 5.234-.188 2.584-2.602 4.713-7.02 4.37-2.132-.167-4.194-1.39-5.693-2.765l1.162-1.437-.008-.007zm-14.11 0c1.257 1.1 2.93 2.288 5.128 2.438 2.688.186 4.396-.794 4.55-2.752.17-2.196-2.138-2.977-4.245-3.368-3.948-.734-5.907-2.11-5.907-4.894 0-2.817 2.41-4.867 6.17-4.734 2.33.084 4.38 1.243 5.33 2.102l-1.067 1.5c-1.164-1.227-3.062-1.836-4.408-1.897-2.478-.112-4.13.827-4.13 2.815 0 1.568.938 2.57 4.74 3.396 3.243.706 5.632 1.838 5.386 5.234-.185 2.584-2.7 4.858-7.02 4.37-2.1-.24-4.3-1.4-5.692-2.765l1.164-1.437.003-.007z"/></svg>
