<svg version="1.1" id="CircleWellness_logo" xmlns="http://www.w3.org/2000/svg" xmlns:xlink="http://www.w3.org/1999/xlink"
	 x="0px" y="0px" width="215.609px" height="78.807px" viewBox="0 0 215.609 78.807" enable-background="new 0 0 215.609 78.807"
	 xml:space="preserve">
<g>
	<g>
		<radialGradient id="SVGID_1_" cx="79.1846" cy="30.3911" r="23.8223" gradientUnits="userSpaceOnUse">
			<stop  offset="0.0839" style="stop-color:#E1F4FD"/>
			<stop  offset="0.8658" style="stop-color:#C9DDF3"/>
			<stop  offset="0.9495" style="stop-color:#B9D0EA"/>
			<stop  offset="0.9664" style="stop-color:#B5CDE8"/>
			<stop  offset="1" style="stop-color:#A4C1E2"/>
		</radialGradient>
		<circle fill="url(#SVGID_1_)" cx="79.185" cy="30.392" r="23.822"/>
	</g>
	<g opacity="0.72">
		<radialGradient id="SVGID_2_" cx="106.1108" cy="30.4204" r="23.8228" gradientUnits="userSpaceOnUse">
			<stop  offset="0" style="stop-color:#EDF8FE"/>
			<stop  offset="0.8322" style="stop-color:#D6E5F1"/>
			<stop  offset="0.9001" style="stop-color:#C9DFF1"/>
			<stop  offset="0.9497" style="stop-color:#BCD9F2"/>
			<stop  offset="1" style="stop-color:#A5CBEC"/>
		</radialGradient>
		<circle fill="url(#SVGID_2_)" cx="106.111" cy="30.42" r="23.822"/>
	</g>
	<g opacity="0.72">
		<radialGradient id="SVGID_3_" cx="133.7192" cy="30.5513" r="23.8223" gradientUnits="userSpaceOnUse">
			<stop  offset="0" style="stop-color:#F9F6C1"/>
			<stop  offset="0.7483" style="stop-color:#FCF9CE"/>
			<stop  offset="0.7886" style="stop-color:#FCF8C4"/>
			<stop  offset="0.8616" style="stop-color:#FEF6AA"/>
			<stop  offset="0.8826" style="stop-color:#FEF5A2"/>
			<stop  offset="1" style="stop-color:#E6D591"/>
		</radialGradient>
		<circle fill="url(#SVGID_3_)" cx="133.719" cy="30.552" r="23.822"/>
	</g>
</g>
<path fill="#244A81" d="M15.329,36.659c-2.017,2.113-4.21,2.904-6.474,2.992c-4.197,0.163-8.654-2.797-8.849-8.559
	c-0.178-5.254,3.644-9.074,8.98-9.074c2.57,0,4.75,1.139,6.246,2.732l-1.301,1.367c-0.846-0.878-2.797-2.338-4.819-2.338
	c-4.419,0-7.152,2.905-7.152,7.314c0,4.111,3.351,6.898,6.896,6.832c1.886-0.034,3.319-0.748,5.238-2.439L15.329,36.659z
	 M53.588,36.659c-2.018,2.113-4.211,2.904-6.474,2.992c-4.197,0.163-8.654-2.797-8.85-8.559c-0.178-5.254,3.644-9.074,8.979-9.074
	c2.57,0,4.75,1.139,6.246,2.732l-1.301,1.367c-0.846-0.878-2.798-2.338-4.819-2.338c-4.42,0-7.152,2.905-7.152,7.314
	c0,4.111,3.351,6.898,6.896,6.832c1.886-0.034,3.318-0.748,5.238-2.439L53.588,36.659z M19.396,22.344v16.994h-2.01V22.344H19.396z
	 M22.877,22.344c0.155-0.023,4.211-0.033,6.083-0.033c3.156,0,4.392,0.423,5.563,1.301c1.205,0.905,1.822,2.375,1.822,3.449
	c0,2.342-0.944,4.783-4.648,5.287c0,0,4.859,6.342,5.296,6.99h-2.406c-0.342-0.498-4.914-6.617-4.914-6.617h-4.878v6.617h-1.919
	V22.344z M24.796,30.998h3.994c3.357,0,5.635-0.813,5.635-3.546c0-2.082-1.593-3.318-4.034-3.318c0,0-5.438,0-5.595,0V30.998z
	 M55.444,22.375h1.947V37.52h9.63v1.818H55.444V22.375z M130.028,22.375h1.948V37.52h9.63v1.818h-11.578V22.375z M143.732,22.375
	h1.947V37.52h9.629v1.818h-11.576V22.375z M80.327,31.652h-9.271v5.868h10.507v1.818H68.969V22.344H81.4v1.818H71.056v5.696h9.271
	V31.652z M186.294,31.652h-9.271v5.868h10.51v1.818h-12.594V22.344h12.43v1.818h-10.346v5.696h9.271V31.652z M126.397,31.652h-9.271
	v5.868h10.509v1.818h-12.596V22.344h12.432v1.818h-10.345v5.696h9.271V31.652z M94.517,39.445l-6.051-17.142h2.059l4.865,14.24
	l4.704-14.267h1.641c0,0,4.563,14.074,4.564,14.349l4.846-14.324l2.126,0.029l-6.147,17.141h-1.76c0,0-4.47-13.771-4.488-13.881
	l-4.719,13.854H94.517z M157.274,39.338V22.346h1.825c0,0,10.638,13.521,10.72,13.676l-0.014-13.7h1.865v17.017h-1.537
	l-11.021-14.035c0.018,0.311,0.036,14.035,0.036,14.035H157.274z M204.042,35.412c1.255,1.101,2.929,2.282,5.125,2.433
	c2.69,0.184,4.397-0.794,4.551-2.752c0.17-2.196-2.139-2.977-4.246-3.368c-3.946-0.735-5.905-2.112-5.905-4.893
	c0-2.818,2.418-4.868,6.174-4.735c2.332,0.084,4.414,1.243,5.361,2.1l-1.131,1.47c-1.438-1.315-3.03-1.806-4.377-1.867
	c-2.477-0.112-4.129,0.827-4.129,2.815c0,1.569,0.939,2.572,4.742,3.396c3.244,0.704,5.63,1.836,5.385,5.232
	c-0.186,2.584-2.601,4.713-7.021,4.369c-2.129-0.166-4.192-1.386-5.691-2.762L204.042,35.412z M189.934,35.412
	c1.256,1.101,2.93,2.282,5.126,2.433c2.691,0.184,4.396-0.794,4.551-2.752c0.17-2.196-2.139-2.977-4.246-3.368
	c-3.947-0.735-5.906-2.112-5.906-4.893c0-2.818,2.418-4.868,6.174-4.735c2.334,0.084,4.383,1.243,5.333,2.1l-1.07,1.5
	c-1.163-1.225-3.062-1.836-4.408-1.897c-2.476-0.112-4.13,0.827-4.13,2.815c0,1.569,0.941,2.572,4.743,3.396
	c3.242,0.704,5.63,1.836,5.384,5.232c-0.185,2.584-2.7,4.859-7.02,4.369c-2.098-0.238-4.301-1.4-5.694-2.762L189.934,35.412z"/>
<text transform="matrix(1 0 0 1 11.3579 69.9009)" font-family="'HelveticaNeue-Light', Helvetica, sans-serif" font-size="11" fill="#00B5E1">a member of Circle Health Partners, Inc.</text>
</svg>
