<svg xmlns="http://www.w3.org/2000/svg" width="215.609" height="59.93" viewBox="0 0 215.609 59.93"><filter id="a"><feGaussianBlur result="coloredBlur" stdDeviation="5"/><feMerge><feMergeNode in="coloredBlur"/><feMergeNode in="SourceGraphic"/></feMerge></filter><g filter="url(#a)"><radialGradient id="b" cx="79.185" cy="30.391" r="23.822" gradientUnits="userSpaceOnUse"><stop offset=".084" stop-color="#E1F4FD"/><stop offset=".866" stop-color="#C9DDF3"/><stop offset=".95" stop-color="#B9D0EA"/><stop offset=".966" stop-color="#B5CDE8"/><stop offset="1" stop-color="#A4C1E2"/></radialGradient><circle fill="url(#b)" cx="79.185" cy="30.392" r="23.822"/><g opacity=".72"><radialGradient id="c" cx="106.111" cy="30.42" r="23.823" gradientUnits="userSpaceOnUse"><stop offset="0" stop-color="#EDF8FE"/><stop offset=".832" stop-color="#D6E5F1"/><stop offset=".9" stop-color="#C9DFF1"/><stop offset=".95" stop-color="#BCD9F2"/><stop offset="1" stop-color="#A5CBEC"/></radialGradient><circle fill="url(#c)" cx="106.111" cy="30.42" r="23.822"/></g><g opacity=".72"><radialGradient id="d" cx="133.719" cy="30.551" r="23.822" gradientUnits="userSpaceOnUse"><stop offset="0" stop-color="#F9F6C1"/><stop offset=".748" stop-color="#FCF9CE"/><stop offset=".789" stop-color="#FCF8C4"/><stop offset=".862" stop-color="#FEF6AA"/><stop offset=".883" stop-color="#FEF5A2"/><stop offset="1" stop-color="#E6D591"/></radialGradient><circle fill="url(#d)" cx="133.719" cy="30.552" r="23.822"/></g></g><path fill="#244A81" d="M15.33 36.66c-2.018 2.112-4.21 2.903-6.475 2.99-4.197.164-8.654-2.796-8.85-8.558-.177-5.254 3.645-9.074 8.98-9.074 2.57 0 4.75 1.14 6.247 2.732l-1.3 1.367c-.847-.878-2.798-2.338-4.82-2.338-4.42 0-7.152 2.9-7.152 7.31 0 4.11 3.35 6.9 6.896 6.83 1.886-.035 3.32-.75 5.238-2.44l1.235 1.173zm38.258 0c-2.018 2.112-4.21 2.903-6.474 2.99-4.197.164-8.654-2.796-8.85-8.558-.178-5.254 3.644-9.074 8.98-9.074 2.57 0 4.75 1.14 6.245 2.732l-1.308 1.367c-.846-.878-2.798-2.338-4.82-2.338-4.42 0-7.15 2.9-7.15 7.31 0 4.11 3.35 6.9 6.895 6.83 1.886-.035 3.32-.75 5.24-2.44l1.236 1.173zM19.396 22.343v16.994h-2.01V22.344h2.01zm3.48 0c.156-.023 4.212-.033 6.084-.033 3.156 0 4.392.424 5.563 1.302 1.205.905 1.822 2.375 1.822 3.45 0 2.34-.944 4.782-4.648 5.286 0 0 4.86 6.342 5.296 6.99h-2.406c-.342-.498-4.914-6.617-4.914-6.617h-4.878v6.62h-1.92V22.348zm1.92 8.654h3.994c3.357 0 5.635-.813 5.635-3.546 0-2.08-1.593-3.312-4.034-3.312H24.8V31zm30.648-8.623h1.947V37.52h9.63v1.818H55.45V22.375zm74.584 0h1.948V37.52h9.63v1.818h-11.578V22.375zm13.704 0h1.947V37.52h9.622v1.818H143.73V22.375zM80.327 31.65h-9.27v5.87h10.506v1.817H68.97V22.344H81.4v1.818H71.056v5.696h9.27v1.794zm105.967 0h-9.27v5.87h10.51v1.817H174.94V22.344h12.43v1.818h-10.35v5.696h9.27v1.794zm-59.897 0h-9.27v5.87h10.508v1.817H115.04V22.344h12.43v1.818h-10.344v5.696h9.27v1.794zm-31.88 7.794l-6.05-17.142h2.058l4.865 14.24 4.704-14.267h1.64s4.564 14.074 4.565 14.35l4.84-14.325 2.124.03-6.147 17.14h-1.76s-4.47-13.77-4.488-13.88l-4.72 13.854h-1.64zm62.757-.107v-16.99h1.825s10.63 13.52 10.72 13.675l-.02-13.7h1.864V39.34h-1.538l-11.02-14.036c.016.31.034 14.035.034 14.035h-1.873zm46.768-3.926c1.255 1.1 2.93 2.288 5.125 2.44 2.69.183 4.397-.795 4.55-2.753.17-2.196-2.138-2.977-4.245-3.368-3.946-.736-5.905-2.113-5.905-4.894 0-2.817 2.418-4.867 6.174-4.734 2.34.084 4.42 1.243 5.368 2.1l-1.13 1.47c-1.44-1.315-3.03-1.806-4.378-1.867-2.478-.112-4.13.827-4.13 2.815 0 1.57.94 2.572 4.742 3.396 3.244.706 5.63 1.838 5.385 5.234-.186 2.584-2.6 4.713-7.02 4.37-2.13-.167-4.193-1.387-5.692-2.763l1.163-1.437zm-14.108 0c1.256 1.1 2.93 2.288 5.126 2.44 2.69.183 4.396-.795 4.55-2.753.17-2.196-2.138-2.977-4.245-3.368-3.947-.736-5.906-2.113-5.906-4.894 0-2.817 2.41-4.867 6.17-4.734 2.33.084 4.38 1.243 5.33 2.1l-1.07 1.5c-1.163-1.225-3.06-1.836-4.408-1.897-2.476-.112-4.13.827-4.13 2.815 0 1.57.94 2.572 4.743 3.396 3.242.706 5.63 1.838 5.384 5.234-.185 2.584-2.7 4.86-7.02 4.37-2.098-.24-4.3-1.4-5.694-2.763l1.165-1.437z"/></svg>