<?xml version="1.0" encoding="utf-8"?>
<!-- Generator: Adobe Illustrator 16.0.5, SVG Export Plug-In . SVG Version: 6.00 Build 0)  -->
<!DOCTYPE svg PUBLIC "-//W3C//DTD SVG 1.1//EN" "http://www.w3.org/Graphics/SVG/1.1/DTD/svg11.dtd">
<svg version="1.1" id="Layer_1" xmlns="http://www.w3.org/2000/svg" xmlns:xlink="http://www.w3.org/1999/xlink" x="0px" y="0px"
	 width="799px" height="46.667px" viewBox="0 0 799 46.667" enable-background="new 0 0 799 46.667" xml:space="preserve">
<path fill="#111111" d="M39.144,10.008L32.278,34.32h-3.34l-5.001-17.768c-0.215-0.757-0.345-1.582-0.39-2.475h-0.068
	c-0.068,0.836-0.215,1.65-0.441,2.441L18.002,34.32h-3.306L7.576,10.008h3.136l5.171,18.649c0.214,0.78,0.35,1.594,0.407,2.441
	h0.085c0.056-0.599,0.231-1.413,0.525-2.441l5.375-18.649h2.729l5.154,18.785c0.181,0.644,0.316,1.401,0.407,2.271h0.068
	c0.045-0.587,0.197-1.367,0.458-2.339l4.968-18.717H39.144z M55.505,26.335H43.247c0.045,1.933,0.565,3.425,1.56,4.476
	c0.995,1.051,2.362,1.577,4.103,1.577c1.956,0,3.752-0.645,5.392-1.933v2.611c-1.526,1.108-3.543,1.662-6.053,1.662
	c-2.453,0-4.38-0.789-5.781-2.365c-1.402-1.577-2.103-3.795-2.103-6.655c0-2.701,0.766-4.902,2.297-6.604s3.433-2.552,5.705-2.552
	s4.029,0.735,5.273,2.204c1.243,1.47,1.865,3.51,1.865,6.121V26.335z M52.657,23.979c-0.012-1.605-0.398-2.854-1.162-3.747
	c-0.763-0.893-1.822-1.339-3.179-1.339c-1.312,0-2.424,0.469-3.34,1.407c-0.916,0.938-1.481,2.165-1.695,3.679H52.657z M62.49,34.32
	h-2.78V8.618h2.78V34.32z M70.899,34.32h-2.78V8.618h2.78V34.32z M90.939,34.32h-2.781v-9.901c0-3.685-1.345-5.527-4.035-5.527
	c-1.39,0-2.541,0.523-3.45,1.568s-1.365,2.365-1.365,3.958v9.901h-2.78V16.959h2.78v2.882h0.068c1.311-2.192,3.21-3.289,5.697-3.289
	c1.899,0,3.351,0.613,4.357,1.84s1.509,2.998,1.509,5.315V34.32z M110.131,26.335H97.873c0.045,1.933,0.565,3.425,1.56,4.476
	c0.995,1.051,2.362,1.577,4.104,1.577c1.955,0,3.752-0.645,5.391-1.933v2.611c-1.525,1.108-3.543,1.662-6.052,1.662
	c-2.453,0-4.38-0.789-5.782-2.365c-1.402-1.577-2.103-3.795-2.103-6.655c0-2.701,0.766-4.902,2.297-6.604s3.433-2.552,5.705-2.552
	c2.271,0,4.029,0.735,5.272,2.204c1.243,1.47,1.865,3.51,1.865,6.121V26.335z M107.282,23.979c-0.011-1.605-0.398-2.854-1.161-3.747
	c-0.763-0.893-1.822-1.339-3.179-1.339c-1.312,0-2.424,0.469-3.34,1.407c-0.916,0.938-1.481,2.165-1.695,3.679H107.282z
	 M113.285,33.693v-2.984c1.514,1.119,3.181,1.679,5.001,1.679c2.441,0,3.662-0.814,3.662-2.441c0-0.463-0.104-0.856-0.313-1.178
	c-0.209-0.322-0.492-0.607-0.848-0.856c-0.356-0.249-0.774-0.472-1.255-0.669s-0.998-0.404-1.551-0.619
	c-0.77-0.305-1.444-0.613-2.026-0.924s-1.068-0.661-1.458-1.051s-0.685-0.833-0.882-1.331c-0.198-0.497-0.297-1.079-0.297-1.746
	c0-0.814,0.187-1.534,0.56-2.162s0.87-1.153,1.492-1.577c0.621-0.424,1.331-0.743,2.128-0.958c0.797-0.214,1.619-0.322,2.467-0.322
	c1.503,0,2.848,0.26,4.035,0.78v2.814c-1.277-0.836-2.747-1.254-4.408-1.254c-0.521,0-0.989,0.059-1.407,0.178
	c-0.418,0.119-0.777,0.285-1.077,0.5c-0.299,0.215-0.531,0.472-0.694,0.771c-0.164,0.299-0.246,0.63-0.246,0.992
	c0,0.452,0.082,0.831,0.246,1.136c0.163,0.305,0.403,0.577,0.72,0.814s0.701,0.452,1.153,0.644c0.452,0.192,0.967,0.401,1.543,0.627
	c0.769,0.294,1.458,0.596,2.068,0.907s1.13,0.661,1.56,1.051c0.43,0.39,0.76,0.839,0.992,1.348c0.231,0.509,0.348,1.113,0.348,1.814
	c0,0.859-0.189,1.605-0.568,2.238c-0.379,0.633-0.885,1.159-1.518,1.577c-0.633,0.419-1.362,0.729-2.187,0.933
	c-0.825,0.203-1.69,0.306-2.595,0.306C116.145,34.728,114.596,34.382,113.285,33.693z M128.018,33.693v-2.984
	c1.514,1.119,3.181,1.679,5.001,1.679c2.441,0,3.662-0.814,3.662-2.441c0-0.463-0.104-0.856-0.313-1.178
	c-0.209-0.322-0.492-0.607-0.848-0.856c-0.356-0.249-0.774-0.472-1.255-0.669s-0.998-0.404-1.551-0.619
	c-0.77-0.305-1.444-0.613-2.026-0.924s-1.068-0.661-1.458-1.051s-0.685-0.833-0.882-1.331c-0.198-0.497-0.297-1.079-0.297-1.746
	c0-0.814,0.187-1.534,0.56-2.162s0.87-1.153,1.492-1.577c0.621-0.424,1.331-0.743,2.128-0.958c0.797-0.214,1.619-0.322,2.467-0.322
	c1.503,0,2.848,0.26,4.035,0.78v2.814c-1.277-0.836-2.747-1.254-4.408-1.254c-0.521,0-0.989,0.059-1.407,0.178
	c-0.418,0.119-0.777,0.285-1.077,0.5c-0.299,0.215-0.531,0.472-0.694,0.771c-0.164,0.299-0.246,0.63-0.246,0.992
	c0,0.452,0.082,0.831,0.246,1.136c0.163,0.305,0.403,0.577,0.72,0.814s0.701,0.452,1.153,0.644c0.452,0.192,0.967,0.401,1.543,0.627
	c0.769,0.294,1.458,0.596,2.068,0.907s1.13,0.661,1.56,1.051c0.43,0.39,0.76,0.839,0.992,1.348c0.231,0.509,0.348,1.113,0.348,1.814
	c0,0.859-0.189,1.605-0.568,2.238c-0.379,0.633-0.885,1.159-1.518,1.577c-0.633,0.419-1.362,0.729-2.187,0.933
	c-0.825,0.203-1.69,0.306-2.595,0.306C130.877,34.728,129.328,34.382,128.018,33.693z M152.551,33.337V29.98
	c0.384,0.339,0.845,0.645,1.382,0.916c0.536,0.271,1.102,0.5,1.695,0.687c0.593,0.187,1.189,0.331,1.788,0.433
	c0.6,0.102,1.153,0.152,1.662,0.152c1.752,0,3.06-0.325,3.925-0.975c0.864-0.65,1.297-1.585,1.297-2.806
	c0-0.655-0.145-1.226-0.433-1.712c-0.288-0.486-0.687-0.929-1.195-1.331s-1.11-0.786-1.806-1.153s-1.443-0.755-2.246-1.162
	c-0.848-0.429-1.639-0.865-2.374-1.305c-0.734-0.441-1.373-0.927-1.915-1.458c-0.543-0.531-0.97-1.133-1.28-1.805
	c-0.312-0.672-0.467-1.461-0.467-2.365c0-1.107,0.243-2.071,0.729-2.891c0.485-0.819,1.124-1.495,1.916-2.026
	c0.791-0.531,1.692-0.926,2.704-1.187c1.011-0.26,2.043-0.39,3.094-0.39c2.396,0,4.143,0.289,5.239,0.865v3.205
	c-1.436-0.995-3.278-1.492-5.527-1.492c-0.622,0-1.243,0.065-1.865,0.195c-0.621,0.13-1.176,0.342-1.661,0.636
	c-0.486,0.294-0.882,0.673-1.187,1.136c-0.306,0.463-0.458,1.028-0.458,1.695c0,0.622,0.115,1.159,0.348,1.611
	c0.231,0.452,0.573,0.864,1.025,1.237s1.003,0.735,1.653,1.085c0.649,0.35,1.398,0.734,2.246,1.153
	c0.87,0.43,1.695,0.881,2.476,1.356c0.78,0.475,1.464,1,2.052,1.577c0.587,0.576,1.054,1.215,1.398,1.916
	c0.345,0.701,0.517,1.503,0.517,2.408c0,1.198-0.234,2.212-0.703,3.043c-0.469,0.832-1.103,1.506-1.899,2.026
	c-0.796,0.521-1.715,0.896-2.755,1.128s-2.136,0.348-3.289,0.348c-0.384,0-0.858-0.031-1.424-0.094s-1.142-0.152-1.729-0.271
	c-0.588-0.118-1.145-0.265-1.67-0.44C153.288,33.747,152.867,33.552,152.551,33.337z M179.015,34.728
	c-2.565,0-4.614-0.812-6.146-2.434c-1.531-1.622-2.297-3.772-2.297-6.451c0-2.916,0.797-5.193,2.391-6.833
	c1.593-1.639,3.746-2.458,6.459-2.458c2.588,0,4.608,0.797,6.062,2.391c1.452,1.594,2.179,3.804,2.179,6.629
	c0,2.77-0.783,4.988-2.349,6.655S181.648,34.728,179.015,34.728z M179.219,18.892c-1.786,0-3.199,0.608-4.238,1.823
	c-1.04,1.215-1.561,2.891-1.561,5.027c0,2.057,0.525,3.679,1.577,4.866c1.051,1.187,2.458,1.78,4.222,1.78
	c1.797,0,3.179-0.582,4.146-1.747c0.966-1.164,1.449-2.82,1.449-4.967c0-2.17-0.483-3.843-1.449-5.019
	C182.397,19.48,181.016,18.892,179.219,18.892z M194.885,34.32h-2.78V8.618h2.78V34.32z M214.552,34.32h-2.78v-2.747h-0.068
	c-1.152,2.102-2.938,3.154-5.357,3.154c-4.137,0-6.205-2.465-6.205-7.392V16.959h2.764v9.935c0,3.662,1.401,5.493,4.204,5.493
	c1.356,0,2.473-0.5,3.349-1.5c0.876-1,1.314-2.309,1.314-3.925V16.959h2.78V34.32z M228.216,34.15
	c-0.655,0.362-1.52,0.543-2.594,0.543c-3.04,0-4.561-1.695-4.561-5.086V19.333h-2.983v-2.374h2.983v-4.239l2.78-0.898v5.137h4.374
	v2.374h-4.374v9.782c0,1.165,0.198,1.995,0.594,2.492s1.051,0.746,1.967,0.746c0.7,0,1.306-0.192,1.813-0.576V34.15z
	 M233.354,12.551c-0.497,0-0.921-0.169-1.271-0.509c-0.351-0.339-0.525-0.769-0.525-1.289c0-0.52,0.175-0.952,0.525-1.297
	c0.351-0.345,0.774-0.517,1.271-0.517c0.509,0,0.941,0.172,1.297,0.517c0.356,0.345,0.534,0.777,0.534,1.297
	c0,0.498-0.178,0.921-0.534,1.272C234.295,12.376,233.862,12.551,233.354,12.551z M234.71,34.32h-2.78V16.959h2.78V34.32z
	 M247.595,34.728c-2.565,0-4.614-0.812-6.146-2.434c-1.531-1.622-2.297-3.772-2.297-6.451c0-2.916,0.797-5.193,2.391-6.833
	c1.593-1.639,3.746-2.458,6.459-2.458c2.588,0,4.608,0.797,6.062,2.391c1.452,1.594,2.179,3.804,2.179,6.629
	c0,2.77-0.783,4.988-2.349,6.655S250.229,34.728,247.595,34.728z M247.799,18.892c-1.786,0-3.199,0.608-4.238,1.823
	c-1.04,1.215-1.561,2.891-1.561,5.027c0,2.057,0.525,3.679,1.577,4.866c1.051,1.187,2.458,1.78,4.222,1.78
	c1.797,0,3.179-0.582,4.146-1.747c0.966-1.164,1.449-2.82,1.449-4.967c0-2.17-0.483-3.843-1.449-5.019
	C250.978,19.48,249.596,18.892,247.799,18.892z M275.095,34.32h-2.78v-9.901c0-3.685-1.346-5.527-4.035-5.527
	c-1.391,0-2.541,0.523-3.45,1.568c-0.91,1.045-1.365,2.365-1.365,3.958v9.901h-2.78V16.959h2.78v2.882h0.068
	c1.311-2.192,3.21-3.289,5.696-3.289c1.898,0,3.351,0.613,4.357,1.84c1.006,1.227,1.509,2.998,1.509,5.315V34.32z M279.282,33.693
	v-2.984c1.514,1.119,3.181,1.679,5.001,1.679c2.441,0,3.662-0.814,3.662-2.441c0-0.463-0.104-0.856-0.313-1.178
	c-0.209-0.322-0.492-0.607-0.848-0.856c-0.356-0.249-0.774-0.472-1.255-0.669s-0.998-0.404-1.551-0.619
	c-0.77-0.305-1.444-0.613-2.026-0.924s-1.068-0.661-1.458-1.051s-0.685-0.833-0.882-1.331c-0.198-0.497-0.297-1.079-0.297-1.746
	c0-0.814,0.187-1.534,0.56-2.162s0.87-1.153,1.492-1.577c0.621-0.424,1.331-0.743,2.128-0.958c0.797-0.214,1.619-0.322,2.467-0.322
	c1.503,0,2.848,0.26,4.035,0.78v2.814c-1.277-0.836-2.747-1.254-4.408-1.254c-0.521,0-0.989,0.059-1.407,0.178
	c-0.418,0.119-0.777,0.285-1.077,0.5c-0.299,0.215-0.531,0.472-0.694,0.771c-0.164,0.299-0.246,0.63-0.246,0.992
	c0,0.452,0.082,0.831,0.246,1.136c0.163,0.305,0.403,0.577,0.72,0.814s0.701,0.452,1.153,0.644c0.452,0.192,0.967,0.401,1.543,0.627
	c0.769,0.294,1.458,0.596,2.068,0.907s1.13,0.661,1.56,1.051c0.43,0.39,0.76,0.839,0.992,1.348c0.231,0.509,0.348,1.113,0.348,1.814
	c0,0.859-0.189,1.605-0.568,2.238c-0.379,0.633-0.885,1.159-1.518,1.577c-0.633,0.419-1.362,0.729-2.187,0.933
	c-0.825,0.203-1.69,0.306-2.595,0.306C282.142,34.728,280.593,34.382,279.282,33.693z M312.631,34.15
	c-0.655,0.362-1.52,0.543-2.594,0.543c-3.04,0-4.561-1.695-4.561-5.086V19.333h-2.983v-2.374h2.983v-4.239l2.78-0.898v5.137h4.374
	v2.374h-4.374v9.782c0,1.165,0.198,1.995,0.594,2.492s1.051,0.746,1.967,0.746c0.7,0,1.306-0.192,1.813-0.576V34.15z M330.755,34.32
	h-2.78V24.317c0-3.617-1.346-5.425-4.035-5.425c-1.356,0-2.498,0.523-3.425,1.568s-1.391,2.388-1.391,4.026v9.833h-2.78V8.618h2.78
	v11.224h0.068c1.333-2.192,3.232-3.289,5.696-3.289c3.91,0,5.866,2.357,5.866,7.07V34.32z M348.422,34.32h-2.781v-2.713h-0.067
	c-1.21,2.08-2.99,3.12-5.341,3.12c-1.729,0-3.083-0.458-4.061-1.374c-0.978-0.915-1.467-2.13-1.467-3.645
	c0-3.244,1.91-5.131,5.731-5.663l5.204-0.729c0-2.95-1.192-4.425-3.577-4.425c-2.091,0-3.979,0.712-5.662,2.136V18.18
	c1.706-1.085,3.673-1.628,5.899-1.628c4.08,0,6.121,2.159,6.121,6.477V34.32z M345.641,25.538l-4.188,0.577
	c-1.288,0.181-2.261,0.5-2.916,0.958c-0.655,0.458-0.983,1.269-0.983,2.433c0,0.848,0.303,1.54,0.907,2.077
	c0.604,0.537,1.41,0.806,2.416,0.806c1.379,0,2.518-0.483,3.416-1.45s1.348-2.19,1.348-3.67V25.538z M361.713,34.15
	c-0.655,0.362-1.52,0.543-2.594,0.543c-3.04,0-4.561-1.695-4.561-5.086V19.333h-2.983v-2.374h2.983v-4.239l2.78-0.898v5.137h4.374
	v2.374h-4.374v9.782c0,1.165,0.198,1.995,0.594,2.492s1.051,0.746,1.967,0.746c0.7,0,1.306-0.192,1.813-0.576V34.15z
	 M374.175,33.337V29.98c0.384,0.339,0.845,0.645,1.382,0.916c0.536,0.271,1.102,0.5,1.695,0.687
	c0.593,0.187,1.189,0.331,1.788,0.433c0.6,0.102,1.153,0.152,1.662,0.152c1.752,0,3.06-0.325,3.925-0.975
	c0.864-0.65,1.297-1.585,1.297-2.806c0-0.655-0.145-1.226-0.433-1.712c-0.288-0.486-0.687-0.929-1.195-1.331
	s-1.11-0.786-1.806-1.153s-1.443-0.755-2.246-1.162c-0.848-0.429-1.639-0.865-2.374-1.305c-0.734-0.441-1.373-0.927-1.915-1.458
	c-0.543-0.531-0.97-1.133-1.28-1.805c-0.312-0.672-0.467-1.461-0.467-2.365c0-1.107,0.243-2.071,0.729-2.891
	c0.485-0.819,1.124-1.495,1.916-2.026c0.791-0.531,1.692-0.926,2.704-1.187c1.011-0.26,2.043-0.39,3.094-0.39
	c2.396,0,4.143,0.289,5.239,0.865v3.205c-1.436-0.995-3.278-1.492-5.527-1.492c-0.622,0-1.243,0.065-1.865,0.195
	c-0.621,0.13-1.176,0.342-1.661,0.636c-0.486,0.294-0.882,0.673-1.187,1.136c-0.306,0.463-0.458,1.028-0.458,1.695
	c0,0.622,0.115,1.159,0.348,1.611c0.231,0.452,0.573,0.864,1.025,1.237s1.003,0.735,1.653,1.085c0.649,0.35,1.398,0.734,2.246,1.153
	c0.87,0.43,1.695,0.881,2.476,1.356c0.78,0.475,1.464,1,2.052,1.577c0.587,0.576,1.054,1.215,1.398,1.916
	c0.345,0.701,0.517,1.503,0.517,2.408c0,1.198-0.234,2.212-0.703,3.043c-0.469,0.832-1.103,1.506-1.899,2.026
	c-0.796,0.521-1.715,0.896-2.755,1.128s-2.136,0.348-3.289,0.348c-0.384,0-0.858-0.031-1.424-0.094s-1.142-0.152-1.729-0.271
	c-0.588-0.118-1.145-0.265-1.67-0.44C374.912,33.747,374.491,33.552,374.175,33.337z M405.812,34.32h-2.781v-2.713h-0.067
	c-1.21,2.08-2.99,3.12-5.341,3.12c-1.729,0-3.083-0.458-4.061-1.374c-0.978-0.915-1.467-2.13-1.467-3.645
	c0-3.244,1.91-5.131,5.731-5.663l5.204-0.729c0-2.95-1.192-4.425-3.577-4.425c-2.091,0-3.979,0.712-5.662,2.136V18.18
	c1.706-1.085,3.673-1.628,5.899-1.628c4.08,0,6.121,2.159,6.121,6.477V34.32z M403.03,25.538l-4.188,0.577
	c-1.288,0.181-2.261,0.5-2.916,0.958c-0.655,0.458-0.983,1.269-0.983,2.433c0,0.848,0.303,1.54,0.907,2.077
	c0.604,0.537,1.41,0.806,2.416,0.806c1.379,0,2.518-0.483,3.416-1.45s1.348-2.19,1.348-3.67V25.538z M424.698,16.959L417.78,34.32
	h-2.729l-6.578-17.361h3.052l4.408,12.614c0.327,0.927,0.531,1.735,0.61,2.424h0.067c0.113-0.87,0.294-1.656,0.543-2.356
	l4.611-12.682H424.698z M441.432,26.335h-12.258c0.045,1.933,0.565,3.425,1.56,4.476c0.995,1.051,2.362,1.577,4.104,1.577
	c1.955,0,3.752-0.645,5.391-1.933v2.611c-1.525,1.108-3.543,1.662-6.052,1.662c-2.453,0-4.381-0.789-5.782-2.365
	c-1.401-1.577-2.102-3.795-2.102-6.655c0-2.701,0.766-4.902,2.297-6.604s3.434-2.552,5.705-2.552s4.029,0.735,5.272,2.204
	c1.243,1.47,1.865,3.51,1.865,6.121V26.335z M438.583,23.979c-0.011-1.605-0.398-2.854-1.161-3.747
	c-0.763-0.893-1.822-1.339-3.179-1.339c-1.312,0-2.425,0.469-3.34,1.407c-0.916,0.938-1.481,2.165-1.695,3.679H438.583z
	 M480.308,34.32h-2.832V18.01c0-1.288,0.079-2.865,0.237-4.73h-0.067c-0.271,1.097-0.515,1.882-0.729,2.356l-8.307,18.684h-1.391
	l-8.291-18.548c-0.237-0.542-0.48-1.373-0.729-2.492h-0.068c0.091,0.972,0.136,2.56,0.136,4.764V34.32h-2.746V10.008h3.764
	l7.46,16.954c0.576,1.3,0.949,2.271,1.119,2.916h0.102c0.485-1.333,0.876-2.328,1.17-2.984l7.612-16.886h3.561V34.32z
	 M493.582,34.728c-2.565,0-4.614-0.812-6.146-2.434c-1.531-1.622-2.297-3.772-2.297-6.451c0-2.916,0.797-5.193,2.391-6.833
	c1.593-1.639,3.746-2.458,6.459-2.458c2.588,0,4.608,0.797,6.062,2.391c1.452,1.594,2.179,3.804,2.179,6.629
	c0,2.77-0.783,4.988-2.349,6.655S496.216,34.728,493.582,34.728z M493.786,18.892c-1.786,0-3.199,0.608-4.238,1.823
	c-1.04,1.215-1.561,2.891-1.561,5.027c0,2.057,0.525,3.679,1.577,4.866c1.051,1.187,2.458,1.78,4.222,1.78
	c1.797,0,3.179-0.582,4.146-1.747c0.966-1.164,1.449-2.82,1.449-4.967c0-2.17-0.483-3.843-1.449-5.019
	C496.965,19.48,495.583,18.892,493.786,18.892z M521.082,34.32h-2.78v-9.901c0-3.685-1.346-5.527-4.035-5.527
	c-1.391,0-2.541,0.523-3.45,1.568c-0.91,1.045-1.365,2.365-1.365,3.958v9.901h-2.78V16.959h2.78v2.882h0.068
	c1.311-2.192,3.21-3.289,5.696-3.289c1.898,0,3.351,0.613,4.357,1.84c1.006,1.227,1.509,2.998,1.509,5.315V34.32z M540.273,26.335
	h-12.258c0.045,1.933,0.565,3.425,1.56,4.476c0.995,1.051,2.362,1.577,4.104,1.577c1.955,0,3.752-0.645,5.391-1.933v2.611
	c-1.525,1.108-3.543,1.662-6.052,1.662c-2.453,0-4.381-0.789-5.782-2.365c-1.401-1.577-2.102-3.795-2.102-6.655
	c0-2.701,0.766-4.902,2.297-6.604s3.434-2.552,5.705-2.552s4.029,0.735,5.272,2.204c1.243,1.47,1.865,3.51,1.865,6.121V26.335z
	 M537.425,23.979c-0.011-1.605-0.398-2.854-1.161-3.747c-0.763-0.893-1.822-1.339-3.179-1.339c-1.312,0-2.425,0.469-3.34,1.407
	c-0.916,0.938-1.481,2.165-1.695,3.679H537.425z M558.296,16.959l-7.985,20.141c-1.424,3.595-3.425,5.392-6.002,5.392
	c-0.724,0-1.328-0.073-1.813-0.221v-2.492c0.599,0.204,1.146,0.306,1.645,0.306c1.401,0,2.452-0.837,3.153-2.51l1.39-3.289
	l-6.781-17.327h3.086l4.696,13.36c0.057,0.169,0.175,0.61,0.355,1.322h0.103c0.056-0.271,0.169-0.701,0.339-1.289l4.934-13.394
	H558.296z M583.219,34.32h-2.781v-2.713h-0.067c-1.21,2.08-2.99,3.12-5.341,3.12c-1.729,0-3.083-0.458-4.061-1.374
	c-0.978-0.915-1.467-2.13-1.467-3.645c0-3.244,1.91-5.131,5.731-5.663l5.204-0.729c0-2.95-1.192-4.425-3.577-4.425
	c-2.091,0-3.979,0.712-5.662,2.136V18.18c1.706-1.085,3.673-1.628,5.899-1.628c4.08,0,6.121,2.159,6.121,6.477V34.32z
	 M580.438,25.538l-4.188,0.577c-1.288,0.181-2.261,0.5-2.916,0.958c-0.655,0.458-0.983,1.269-0.983,2.433
	c0,0.848,0.303,1.54,0.907,2.077c0.604,0.537,1.41,0.806,2.416,0.806c1.379,0,2.518-0.483,3.416-1.45s1.348-2.19,1.348-3.67V25.538z
	 M602.868,34.32h-2.78v-9.901c0-3.685-1.346-5.527-4.035-5.527c-1.391,0-2.541,0.523-3.45,1.568
	c-0.91,1.045-1.365,2.365-1.365,3.958v9.901h-2.78V16.959h2.78v2.882h0.068c1.311-2.192,3.21-3.289,5.696-3.289
	c1.898,0,3.351,0.613,4.357,1.84c1.006,1.227,1.509,2.998,1.509,5.315V34.32z M622.925,34.32h-2.78v-2.95h-0.067
	c-1.289,2.238-3.278,3.357-5.968,3.357c-2.182,0-3.925-0.777-5.23-2.331c-1.306-1.554-1.958-3.671-1.958-6.35
	c0-2.871,0.723-5.171,2.17-6.9c1.446-1.729,3.374-2.594,5.781-2.594c2.385,0,4.12,0.938,5.205,2.814h0.067V8.618h2.78V34.32z
	 M620.145,26.471v-2.56c0-1.401-0.463-2.588-1.39-3.561c-0.928-0.972-2.103-1.458-3.526-1.458c-1.696,0-3.029,0.622-4.002,1.865
	c-0.972,1.244-1.458,2.961-1.458,5.154c0,2,0.467,3.58,1.399,4.739c0.932,1.159,2.184,1.738,3.755,1.738
	c1.549,0,2.806-0.56,3.772-1.679C619.661,29.59,620.145,28.177,620.145,26.471z M637.303,33.337V29.98
	c0.384,0.339,0.845,0.645,1.382,0.916c0.536,0.271,1.102,0.5,1.695,0.687c0.593,0.187,1.189,0.331,1.788,0.433
	c0.6,0.102,1.153,0.152,1.662,0.152c1.752,0,3.06-0.325,3.925-0.975c0.864-0.65,1.297-1.585,1.297-2.806
	c0-0.655-0.145-1.226-0.433-1.712c-0.288-0.486-0.687-0.929-1.195-1.331s-1.11-0.786-1.806-1.153s-1.443-0.755-2.246-1.162
	c-0.848-0.429-1.639-0.865-2.374-1.305c-0.734-0.441-1.373-0.927-1.915-1.458c-0.543-0.531-0.97-1.133-1.28-1.805
	c-0.312-0.672-0.467-1.461-0.467-2.365c0-1.107,0.243-2.071,0.729-2.891c0.485-0.819,1.124-1.495,1.916-2.026
	c0.791-0.531,1.692-0.926,2.704-1.187c1.011-0.26,2.043-0.39,3.094-0.39c2.396,0,4.143,0.289,5.239,0.865v3.205
	c-1.436-0.995-3.278-1.492-5.527-1.492c-0.622,0-1.243,0.065-1.865,0.195c-0.621,0.13-1.176,0.342-1.661,0.636
	c-0.486,0.294-0.882,0.673-1.187,1.136c-0.306,0.463-0.458,1.028-0.458,1.695c0,0.622,0.115,1.159,0.348,1.611
	c0.231,0.452,0.573,0.864,1.025,1.237s1.003,0.735,1.653,1.085c0.649,0.35,1.398,0.734,2.246,1.153
	c0.87,0.43,1.695,0.881,2.476,1.356c0.78,0.475,1.464,1,2.052,1.577c0.587,0.576,1.054,1.215,1.398,1.916
	c0.345,0.701,0.517,1.503,0.517,2.408c0,1.198-0.234,2.212-0.703,3.043c-0.469,0.832-1.103,1.506-1.899,2.026
	c-0.796,0.521-1.715,0.896-2.755,1.128s-2.136,0.348-3.289,0.348c-0.384,0-0.858-0.031-1.424-0.094s-1.142-0.152-1.729-0.271
	c-0.588-0.118-1.145-0.265-1.67-0.44C638.04,33.747,637.619,33.552,637.303,33.337z M668.938,34.32h-2.781v-2.713h-0.067
	c-1.21,2.08-2.99,3.12-5.341,3.12c-1.729,0-3.083-0.458-4.061-1.374c-0.978-0.915-1.467-2.13-1.467-3.645
	c0-3.244,1.91-5.131,5.731-5.663l5.204-0.729c0-2.95-1.192-4.425-3.577-4.425c-2.091,0-3.979,0.712-5.662,2.136V18.18
	c1.706-1.085,3.673-1.628,5.899-1.628c4.08,0,6.121,2.159,6.121,6.477V34.32z M666.157,25.538l-4.188,0.577
	c-1.288,0.181-2.261,0.5-2.916,0.958c-0.655,0.458-0.983,1.269-0.983,2.433c0,0.848,0.303,1.54,0.907,2.077
	c0.604,0.537,1.41,0.806,2.416,0.806c1.379,0,2.518-0.483,3.416-1.45s1.348-2.19,1.348-3.67V25.538z M687.826,16.959l-6.918,17.361
	h-2.729l-6.578-17.361h3.052l4.408,12.614c0.327,0.927,0.531,1.735,0.61,2.424h0.067c0.113-0.87,0.294-1.656,0.543-2.356
	l4.611-12.682H687.826z M704.559,26.335h-12.258c0.045,1.933,0.565,3.425,1.56,4.476c0.995,1.051,2.362,1.577,4.104,1.577
	c1.955,0,3.752-0.645,5.391-1.933v2.611c-1.525,1.108-3.543,1.662-6.052,1.662c-2.453,0-4.381-0.789-5.782-2.365
	c-1.401-1.577-2.102-3.795-2.102-6.655c0-2.701,0.766-4.902,2.297-6.604s3.434-2.552,5.705-2.552s4.029,0.735,5.272,2.204
	c1.243,1.47,1.865,3.51,1.865,6.121V26.335z M701.71,23.979c-0.011-1.605-0.398-2.854-1.161-3.747
	c-0.763-0.893-1.822-1.339-3.179-1.339c-1.312,0-2.425,0.469-3.34,1.407c-0.916,0.938-1.481,2.165-1.695,3.679H701.71z
	 M731.262,34.32h-12.613V10.008h2.849v21.735h9.765V34.32z M736.043,12.551c-0.497,0-0.921-0.169-1.271-0.509
	c-0.351-0.339-0.525-0.769-0.525-1.289c0-0.52,0.175-0.952,0.525-1.297c0.351-0.345,0.774-0.517,1.271-0.517
	c0.509,0,0.941,0.172,1.297,0.517c0.356,0.345,0.534,0.777,0.534,1.297c0,0.498-0.178,0.921-0.534,1.272
	C736.984,12.376,736.552,12.551,736.043,12.551z M737.399,34.32h-2.78V16.959h2.78V34.32z M756.677,16.959l-6.918,17.361h-2.729
	l-6.578-17.361h3.052l4.408,12.614c0.327,0.927,0.531,1.735,0.61,2.424h0.067c0.113-0.87,0.294-1.656,0.543-2.356l4.611-12.682
	H756.677z M773.409,26.335h-12.258c0.045,1.933,0.565,3.425,1.56,4.476c0.995,1.051,2.362,1.577,4.104,1.577
	c1.955,0,3.752-0.645,5.391-1.933v2.611c-1.525,1.108-3.543,1.662-6.052,1.662c-2.453,0-4.381-0.789-5.782-2.365
	c-1.401-1.577-2.102-3.795-2.102-6.655c0-2.701,0.766-4.902,2.297-6.604s3.434-2.552,5.705-2.552s4.029,0.735,5.272,2.204
	c1.243,1.47,1.865,3.51,1.865,6.121V26.335z M770.561,23.979c-0.011-1.605-0.398-2.854-1.161-3.747
	c-0.763-0.893-1.822-1.339-3.179-1.339c-1.312,0-2.425,0.469-3.34,1.407c-0.916,0.938-1.481,2.165-1.695,3.679H770.561z
	 M776.563,33.693v-2.984c1.514,1.119,3.181,1.679,5.001,1.679c2.441,0,3.662-0.814,3.662-2.441c0-0.463-0.104-0.856-0.313-1.178
	c-0.209-0.322-0.492-0.607-0.848-0.856c-0.356-0.249-0.774-0.472-1.255-0.669s-0.998-0.404-1.551-0.619
	c-0.77-0.305-1.444-0.613-2.026-0.924s-1.068-0.661-1.458-1.051s-0.685-0.833-0.882-1.331c-0.198-0.497-0.297-1.079-0.297-1.746
	c0-0.814,0.187-1.534,0.56-2.162s0.87-1.153,1.492-1.577c0.621-0.424,1.331-0.743,2.128-0.958c0.797-0.214,1.619-0.322,2.467-0.322
	c1.503,0,2.848,0.26,4.035,0.78v2.814c-1.277-0.836-2.747-1.254-4.408-1.254c-0.521,0-0.989,0.059-1.407,0.178
	c-0.418,0.119-0.777,0.285-1.077,0.5c-0.299,0.215-0.531,0.472-0.694,0.771c-0.164,0.299-0.246,0.63-0.246,0.992
	c0,0.452,0.082,0.831,0.246,1.136c0.163,0.305,0.403,0.577,0.72,0.814s0.701,0.452,1.153,0.644c0.452,0.192,0.967,0.401,1.543,0.627
	c0.769,0.294,1.458,0.596,2.068,0.907s1.13,0.661,1.56,1.051c0.43,0.39,0.76,0.839,0.992,1.348c0.231,0.509,0.348,1.113,0.348,1.814
	c0,0.859-0.189,1.605-0.568,2.238c-0.379,0.633-0.885,1.159-1.518,1.577c-0.633,0.419-1.362,0.729-2.187,0.933
	c-0.825,0.203-1.69,0.306-2.595,0.306C779.423,34.728,777.874,34.382,776.563,33.693z"/>
</svg>
