<?xml version="1.0" encoding="utf-8"?>
<!-- Generator: Adobe Illustrator 16.0.5, SVG Export Plug-In . SVG Version: 6.00 Build 0)  -->
<!DOCTYPE svg PUBLIC "-//W3C//DTD SVG 1.1//EN" "http://www.w3.org/Graphics/SVG/1.1/DTD/svg11.dtd">
<svg version="1.1" id="Layer_1" xmlns="http://www.w3.org/2000/svg" xmlns:xlink="http://www.w3.org/1999/xlink" x="0px" y="0px"
	 width="228px" height="98.799px" viewBox="0 0 228 98.799" enable-background="new 0 0 228 98.799" xml:space="preserve">
<filter  id="shadow">
	<feOffset  dy="0" dx="0" in="SourceGraphic" result="offOut"></feOffset>

		<feColorMatrix  type="matrix" values="               0.0 0.0 0.0 0.0 0.0               0.0 0.0 0.0 0.0 0.0               0.0 0.0 0.0 0.2 0.0               0.0 0.0 0.1 0.1 0.0               " in="offOut" result="matrixOut">
		</feColorMatrix>
	<feGaussianBlur  stdDeviation="1" in="matrixOut" result="blurOut"></feGaussianBlur>
	<feBlend  mode="normal" in="SourceGraphic" in2="blurOut"></feBlend>
</filter>
<filter  id="a">
	<feGaussianBlur  stdDeviation="5" result="coloredBlur"></feGaussianBlur>
	<feMerge>
		<feMergeNode  in="coloredBlur"></feMergeNode>
		<feMergeNode  in="SourceGraphic"></feMergeNode>
	</feMerge>
</filter>
<path id="Wellness_Solutions" fill="#FFFFFF" filter="url(#shadow)" d="M29.062,67.999l-5.219,18.479h-2.539l-3.801-13.505
	c-0.164-0.575-0.263-1.202-0.297-1.881h-0.052c-0.051,0.636-0.163,1.254-0.335,1.855l-3.827,13.53H10.48L5.068,67.999h2.384
	l3.931,14.175c0.163,0.593,0.267,1.211,0.31,1.855h0.064c0.043-0.455,0.176-1.074,0.399-1.855l4.085-14.175h2.074l3.917,14.277
	c0.138,0.49,0.24,1.065,0.31,1.728h0.052c0.034-0.447,0.15-1.04,0.348-1.778l3.775-14.227H29.062z M41.497,80.408h-9.316
	c0.034,1.469,0.43,2.604,1.186,3.402s1.796,1.198,3.118,1.198c1.486,0,2.853-0.49,4.098-1.469v1.984
	c-1.159,0.842-2.692,1.263-4.6,1.263c-1.864,0-3.329-0.6-4.395-1.798s-1.598-2.884-1.598-5.058c0-2.053,0.582-3.727,1.746-5.02
	c1.164-1.292,2.609-1.939,4.336-1.939s3.062,0.559,4.008,1.676c0.944,1.117,1.417,2.667,1.417,4.651V80.408z M39.332,78.617
	c-0.008-1.22-0.303-2.169-0.882-2.848c-0.58-0.679-1.386-1.019-2.416-1.019c-0.997,0-1.843,0.357-2.539,1.07
	c-0.695,0.713-1.125,1.645-1.288,2.796H39.332z M46.807,86.478h-2.113V66.943h2.113V86.478z M53.197,86.478h-2.113V66.943h2.113
	V86.478z M68.429,86.478h-2.113v-7.525c0-2.801-1.022-4.201-3.066-4.201c-1.057,0-1.932,0.397-2.623,1.192s-1.037,1.798-1.037,3.009
	v7.525h-2.113V73.282h2.113v2.19h0.052c0.996-1.666,2.439-2.5,4.329-2.5c1.443,0,2.548,0.467,3.312,1.398
	c0.764,0.933,1.146,2.279,1.146,4.04V86.478z M83.016,80.408h-9.316c0.034,1.469,0.429,2.604,1.186,3.402
	c0.756,0.799,1.795,1.198,3.118,1.198c1.486,0,2.852-0.49,4.098-1.469v1.984c-1.16,0.842-2.693,1.263-4.601,1.263
	c-1.864,0-3.329-0.6-4.394-1.798c-1.065-1.198-1.599-2.884-1.599-5.058c0-2.053,0.582-3.727,1.746-5.02
	c1.164-1.292,2.609-1.939,4.337-1.939c1.727,0,3.062,0.559,4.007,1.676s1.418,2.667,1.418,4.651V80.408z M80.851,78.617
	c-0.009-1.22-0.303-2.169-0.883-2.848s-1.385-1.019-2.416-1.019c-0.997,0-1.843,0.357-2.538,1.07
	c-0.696,0.713-1.126,1.645-1.289,2.796H80.851z M85.412,86.001v-2.269c1.151,0.851,2.418,1.276,3.802,1.276
	c1.855,0,2.783-0.619,2.783-1.855c0-0.353-0.08-0.651-0.238-0.896c-0.159-0.245-0.374-0.462-0.645-0.651
	c-0.271-0.188-0.589-0.358-0.954-0.509s-0.758-0.307-1.179-0.471c-0.584-0.231-1.098-0.466-1.54-0.702s-0.812-0.502-1.108-0.799
	c-0.296-0.296-0.52-0.633-0.67-1.012c-0.15-0.378-0.226-0.82-0.226-1.327c0-0.618,0.143-1.166,0.426-1.643s0.661-0.876,1.134-1.198
	s1.012-0.565,1.617-0.729s1.23-0.245,1.875-0.245c1.143,0,2.165,0.198,3.066,0.593v2.14c-0.971-0.636-2.087-0.954-3.35-0.954
	c-0.396,0-0.752,0.046-1.07,0.136c-0.317,0.09-0.59,0.217-0.817,0.38c-0.229,0.163-0.404,0.359-0.528,0.587
	c-0.125,0.228-0.188,0.479-0.188,0.754c0,0.343,0.062,0.631,0.188,0.863c0.124,0.231,0.307,0.438,0.547,0.618
	c0.241,0.181,0.533,0.344,0.877,0.489c0.343,0.146,0.734,0.306,1.172,0.478c0.584,0.223,1.108,0.453,1.572,0.689
	s0.859,0.502,1.186,0.799c0.326,0.296,0.578,0.638,0.754,1.024s0.265,0.846,0.265,1.379c0,0.652-0.145,1.22-0.432,1.7
	c-0.288,0.481-0.673,0.881-1.153,1.198c-0.481,0.318-1.036,0.555-1.663,0.709c-0.627,0.155-1.284,0.232-1.971,0.232
	C87.585,86.787,86.408,86.525,85.412,86.001z M96.61,86.001v-2.269c1.15,0.851,2.418,1.276,3.801,1.276
	c1.855,0,2.783-0.619,2.783-1.855c0-0.353-0.079-0.651-0.238-0.896c-0.159-0.245-0.374-0.462-0.645-0.651
	c-0.271-0.188-0.588-0.358-0.953-0.509s-0.758-0.307-1.179-0.471c-0.585-0.231-1.098-0.466-1.54-0.702s-0.812-0.502-1.108-0.799
	c-0.296-0.296-0.52-0.633-0.67-1.012c-0.15-0.378-0.226-0.82-0.226-1.327c0-0.618,0.142-1.166,0.425-1.643
	c0.284-0.477,0.662-0.876,1.135-1.198c0.472-0.322,1.011-0.565,1.617-0.729c0.605-0.163,1.23-0.245,1.874-0.245
	c1.143,0,2.165,0.198,3.067,0.593v2.14c-0.971-0.636-2.088-0.954-3.351-0.954c-0.396,0-0.752,0.046-1.069,0.136
	c-0.318,0.09-0.591,0.217-0.818,0.38s-0.404,0.359-0.528,0.587c-0.125,0.228-0.187,0.479-0.187,0.754
	c0,0.343,0.062,0.631,0.187,0.863c0.124,0.231,0.307,0.438,0.548,0.618c0.24,0.181,0.532,0.344,0.876,0.489
	c0.344,0.146,0.734,0.306,1.173,0.478c0.584,0.223,1.108,0.453,1.572,0.689s0.858,0.502,1.186,0.799
	c0.326,0.296,0.577,0.638,0.754,1.024c0.176,0.387,0.264,0.846,0.264,1.379c0,0.652-0.144,1.22-0.432,1.7
	c-0.288,0.481-0.672,0.881-1.153,1.198c-0.481,0.318-1.035,0.555-1.662,0.709c-0.627,0.155-1.284,0.232-1.972,0.232
	C98.783,86.787,97.606,86.525,96.61,86.001z M115.256,85.731v-2.552c0.293,0.258,0.643,0.489,1.051,0.696
	c0.408,0.206,0.838,0.38,1.289,0.521c0.449,0.142,0.902,0.251,1.359,0.328c0.455,0.078,0.875,0.116,1.262,0.116
	c1.332,0,2.326-0.247,2.982-0.741c0.658-0.493,0.986-1.204,0.986-2.132c0-0.498-0.109-0.933-0.328-1.302s-0.521-0.706-0.908-1.012
	c-0.387-0.305-0.844-0.597-1.373-0.876c-0.527-0.279-1.098-0.573-1.707-0.883c-0.645-0.326-1.246-0.657-1.805-0.992
	s-1.043-0.704-1.455-1.108c-0.412-0.403-0.736-0.861-0.973-1.372s-0.355-1.11-0.355-1.798c0-0.842,0.186-1.574,0.555-2.197
	c0.369-0.622,0.855-1.136,1.455-1.539c0.602-0.404,1.287-0.705,2.057-0.902c0.768-0.197,1.553-0.297,2.352-0.297
	c1.82,0,3.148,0.22,3.98,0.657v2.436c-1.09-0.756-2.49-1.134-4.199-1.134c-0.473,0-0.945,0.05-1.418,0.148s-0.895,0.26-1.264,0.483
	s-0.67,0.511-0.9,0.863c-0.232,0.353-0.35,0.781-0.35,1.288c0,0.473,0.088,0.881,0.266,1.225c0.176,0.344,0.436,0.657,0.779,0.94
	s0.762,0.559,1.256,0.825c0.494,0.266,1.062,0.558,1.707,0.876c0.662,0.326,1.289,0.67,1.883,1.03
	c0.592,0.361,1.111,0.761,1.559,1.199c0.445,0.438,0.801,0.923,1.062,1.456c0.262,0.532,0.393,1.143,0.393,1.829
	c0,0.911-0.178,1.682-0.533,2.313c-0.357,0.631-0.838,1.145-1.443,1.54c-0.605,0.395-1.305,0.681-2.094,0.856
	c-0.791,0.176-1.625,0.265-2.5,0.265c-0.293,0-0.654-0.024-1.084-0.071s-0.867-0.116-1.314-0.206
	c-0.445-0.09-0.869-0.202-1.268-0.335C115.816,86.042,115.496,85.894,115.256,85.731z M135.371,86.787
	c-1.95,0-3.507-0.616-4.671-1.85c-1.164-1.232-1.746-2.867-1.746-4.903c0-2.216,0.605-3.947,1.816-5.192
	c1.212-1.246,2.848-1.869,4.91-1.869c1.967,0,3.502,0.606,4.606,1.817c1.104,1.211,1.655,2.891,1.655,5.038
	c0,2.105-0.595,3.791-1.784,5.058C138.968,86.154,137.372,86.787,135.371,86.787z M135.525,74.751c-1.357,0-2.431,0.462-3.222,1.386
	c-0.79,0.924-1.185,2.197-1.185,3.82c0,1.563,0.399,2.797,1.198,3.698c0.799,0.902,1.868,1.354,3.208,1.354
	c1.366,0,2.416-0.442,3.15-1.327c0.735-0.885,1.103-2.144,1.103-3.776c0-1.648-0.367-2.92-1.103-3.813
	C137.941,75.198,136.892,74.751,135.525,74.751z M147.432,86.478h-2.113V66.943h2.113V86.478z M162.38,86.478h-2.113V84.39h-0.052
	c-0.876,1.599-2.233,2.397-4.071,2.397c-3.145,0-4.717-1.873-4.717-5.618v-7.887h2.101v7.552c0,2.783,1.065,4.175,3.195,4.175
	c1.031,0,1.88-0.381,2.545-1.141c0.666-0.761,0.999-1.755,0.999-2.983v-7.603h2.113V86.478z M172.766,86.349
	c-0.498,0.274-1.155,0.412-1.972,0.412c-2.311,0-3.466-1.288-3.466-3.865v-7.81h-2.269v-1.804h2.269v-3.222l2.113-0.683v3.904h3.324
	v1.804h-3.324v7.436c0,0.885,0.15,1.517,0.451,1.895c0.3,0.378,0.799,0.566,1.494,0.566c0.533,0,0.992-0.146,1.379-0.438V86.349z
	 M176.67,69.932c-0.378,0-0.7-0.129-0.967-0.386c-0.267-0.258-0.399-0.585-0.399-0.979c0-0.396,0.133-0.724,0.399-0.986
	c0.267-0.262,0.589-0.393,0.967-0.393c0.387,0,0.715,0.131,0.985,0.393c0.271,0.263,0.406,0.591,0.406,0.986
	c0,0.378-0.136,0.7-0.406,0.966C177.385,69.799,177.057,69.932,176.67,69.932z M177.7,86.478h-2.113V73.282h2.113V86.478z
	 M187.494,86.787c-1.95,0-3.507-0.616-4.671-1.85c-1.164-1.232-1.746-2.867-1.746-4.903c0-2.216,0.605-3.947,1.816-5.192
	c1.212-1.246,2.848-1.869,4.91-1.869c1.967,0,3.502,0.606,4.606,1.817c1.104,1.211,1.655,2.891,1.655,5.038
	c0,2.105-0.595,3.791-1.784,5.058C191.091,86.154,189.495,86.787,187.494,86.787z M187.648,74.751c-1.357,0-2.431,0.462-3.222,1.386
	c-0.79,0.924-1.185,2.197-1.185,3.82c0,1.563,0.399,2.797,1.198,3.698c0.799,0.902,1.868,1.354,3.208,1.354
	c1.366,0,2.416-0.442,3.15-1.327c0.735-0.885,1.103-2.144,1.103-3.776c0-1.648-0.367-2.92-1.103-3.813
	C190.064,75.198,189.015,74.751,187.648,74.751z M208.395,86.478h-2.113v-7.525c0-2.801-1.022-4.201-3.066-4.201
	c-1.057,0-1.931,0.397-2.622,1.192c-0.692,0.795-1.038,1.798-1.038,3.009v7.525h-2.113V73.282h2.113v2.19h0.052
	c0.997-1.666,2.439-2.5,4.33-2.5c1.443,0,2.547,0.467,3.312,1.398c0.765,0.933,1.146,2.279,1.146,4.04V86.478z M211.578,86.001
	v-2.269c1.151,0.851,2.418,1.276,3.802,1.276c1.855,0,2.783-0.619,2.783-1.855c0-0.353-0.079-0.651-0.238-0.896
	c-0.159-0.245-0.374-0.462-0.645-0.651c-0.271-0.188-0.589-0.358-0.953-0.509c-0.365-0.15-0.759-0.307-1.18-0.471
	c-0.584-0.231-1.098-0.466-1.539-0.702c-0.443-0.236-0.812-0.502-1.108-0.799c-0.297-0.296-0.521-0.633-0.67-1.012
	c-0.15-0.378-0.226-0.82-0.226-1.327c0-0.618,0.142-1.166,0.425-1.643s0.661-0.876,1.134-1.198s1.012-0.565,1.617-0.729
	s1.23-0.245,1.875-0.245c1.143,0,2.165,0.198,3.067,0.593v2.14c-0.972-0.636-2.088-0.954-3.351-0.954
	c-0.396,0-0.752,0.046-1.069,0.136c-0.318,0.09-0.591,0.217-0.818,0.38s-0.404,0.359-0.528,0.587
	c-0.125,0.228-0.188,0.479-0.188,0.754c0,0.343,0.062,0.631,0.188,0.863c0.124,0.231,0.307,0.438,0.548,0.618
	c0.24,0.181,0.532,0.344,0.876,0.489c0.344,0.146,0.734,0.306,1.173,0.478c0.584,0.223,1.107,0.453,1.571,0.689
	s0.859,0.502,1.186,0.799c0.327,0.296,0.578,0.638,0.754,1.024s0.265,0.846,0.265,1.379c0,0.652-0.145,1.22-0.432,1.7
	c-0.288,0.481-0.673,0.881-1.153,1.198c-0.481,0.318-1.035,0.555-1.662,0.709c-0.628,0.155-1.285,0.232-1.972,0.232
	C213.752,86.787,212.575,86.525,211.578,86.001z"/>
<g id="circles" filter="url(#a)">
	
		<radialGradient id="SVGID_1_" cx="676.1875" cy="583.4631" r="23.8223" gradientTransform="matrix(1 0 0 1 -592 -551.0703)" gradientUnits="userSpaceOnUse">
		<stop  offset="0.084" style="stop-color:#E1F4FD"/>
		<stop  offset="0.866" style="stop-color:#C9DDF3"/>
		<stop  offset="0.95" style="stop-color:#B9D0EA"/>
		<stop  offset="0.966" style="stop-color:#B5CDE8"/>
		<stop  offset="1" style="stop-color:#A4C1E2"/>
	</radialGradient>
	<circle fill="url(#SVGID_1_)" cx="84.188" cy="32.394" r="23.822"/>
	<g opacity="0.72">
		
			<radialGradient id="SVGID_2_" cx="703.1143" cy="583.4924" r="23.8223" gradientTransform="matrix(1 0 0 1 -592 -551.0703)" gradientUnits="userSpaceOnUse">
			<stop  offset="0" style="stop-color:#EDF8FE"/>
			<stop  offset="0.832" style="stop-color:#D6E5F1"/>
			<stop  offset="0.9" style="stop-color:#C9DFF1"/>
			<stop  offset="0.95" style="stop-color:#BCD9F2"/>
			<stop  offset="1" style="stop-color:#A5CBEC"/>
		</radialGradient>
		<circle fill="url(#SVGID_2_)" cx="111.114" cy="32.422" r="23.822"/>
	</g>
	<g opacity="0.72">
		
			<radialGradient id="SVGID_3_" cx="730.7227" cy="583.6233" r="23.8218" gradientTransform="matrix(1 0 0 1 -592 -551.0703)" gradientUnits="userSpaceOnUse">
			<stop  offset="0" style="stop-color:#F9F6C1"/>
			<stop  offset="0.748" style="stop-color:#FCF9CE"/>
			<stop  offset="0.789" style="stop-color:#FCF8C4"/>
			<stop  offset="0.862" style="stop-color:#FEF6AA"/>
			<stop  offset="0.883" style="stop-color:#FEF5A2"/>
			<stop  offset="1" style="stop-color:#E6D591"/>
		</radialGradient>
		<circle fill="url(#SVGID_3_)" cx="138.722" cy="32.554" r="23.822"/>
	</g>
</g>
<path id="Circle_Wellness" fill="#FFFFFF" filter="url(#shadow)" d="M20.333,38.662c-2.018,2.11-4.21,2.901-6.475,2.988
	c-4.197,0.164-8.654-2.796-8.851-8.558c-0.177-5.254,3.646-9.074,8.98-9.074c2.57,0,4.75,1.142,6.247,2.732l-1.3,1.367
	c-0.848-0.879-2.799-2.34-4.82-2.34c-4.42,0-7.152,2.9-7.152,7.312c0,4.11,3.351,6.899,6.896,6.83
	c1.886-0.035,3.319-0.75,5.237-2.44l1.235,1.173L20.333,38.662z M58.591,38.662c-2.018,2.11-4.21,2.901-6.474,2.988
	c-4.197,0.164-8.654-2.796-8.85-8.558c-0.179-5.254,3.644-9.074,8.979-9.074c2.57,0,4.75,1.142,6.245,2.732l-1.308,1.367
	c-0.847-0.879-2.799-2.34-4.82-2.34c-4.42,0-7.15,2.9-7.15,7.312c0,4.11,3.351,6.899,6.896,6.83c1.886-0.035,3.319-0.75,5.24-2.44
	l1.235,1.173L58.591,38.662z M24.399,24.345v16.994h-2.011V24.346L24.399,24.345L24.399,24.345z M27.879,24.345
	c0.156-0.023,4.212-0.033,6.084-0.033c3.156,0,4.393,0.424,5.563,1.302c1.205,0.905,1.822,2.375,1.822,3.45
	c0,2.34-0.944,4.782-4.648,5.286c0,0,4.86,6.342,5.296,6.99H39.59c-0.342-0.498-4.914-6.617-4.914-6.617h-4.878v6.62h-1.92V24.35
	L27.879,24.345z M29.799,32.999h3.994c3.357,0,5.635-0.813,5.635-3.546c0-2.08-1.593-3.312-4.033-3.312h-5.592v6.861L29.799,32.999z
	 M60.447,24.376h1.947v15.146h9.63v1.818H60.453V24.377L60.447,24.376z M135.03,24.376h1.949v15.146h9.629v1.818H135.03V24.376
	L135.03,24.376z M148.735,24.376h1.947v15.146h9.62v1.818h-11.569V24.377L148.735,24.376z M85.33,33.652h-9.27v5.87h10.506v1.817
	H73.973V24.346h12.43v1.818H76.059v5.694h9.27L85.33,33.652L85.33,33.652z M191.297,33.652h-9.271v5.87h10.511v1.817h-12.595V24.346
	h12.431v1.818h-10.351v5.694h9.271v1.794L191.297,33.652z M131.399,33.652h-9.271v5.87h10.508v1.817h-12.594V24.346h12.431v1.818
	h-10.345v5.694h9.271V33.652L131.399,33.652z M99.52,41.446l-6.051-17.142h2.059l4.865,14.24l4.703-14.269h1.641
	c0,0,4.563,14.074,4.564,14.352l4.842-14.325l2.124,0.03l-6.147,17.14h-1.76c0,0-4.471-13.77-4.488-13.88l-4.72,13.854H99.51H99.52z
	 M162.276,41.339v-16.99h1.826c0,0,10.629,13.521,10.719,13.675l-0.021-13.7h1.864v17.019h-1.538l-11.021-14.036
	c0.017,0.312,0.035,14.035,0.035,14.035h-1.873L162.276,41.339z M209.045,37.413c1.255,1.1,2.931,2.288,5.125,2.438
	c2.69,0.185,4.397-0.795,4.55-2.753c0.172-2.196-2.138-2.977-4.244-3.368c-3.945-0.734-5.904-2.111-5.904-4.894
	c0-2.817,2.418-4.867,6.174-4.734c2.34,0.084,4.42,1.243,5.367,2.102l-1.129,1.47c-1.44-1.315-3.03-1.806-4.379-1.867
	c-2.479-0.112-4.129,0.827-4.129,2.815c0,1.568,0.938,2.57,4.74,3.396c3.244,0.706,5.63,1.838,5.387,5.234
	c-0.188,2.584-2.602,4.713-7.021,4.37c-2.131-0.167-4.193-1.389-5.692-2.765l1.163-1.437L209.045,37.413z M194.937,37.413
	c1.256,1.1,2.93,2.288,5.127,2.438c2.688,0.185,4.396-0.795,4.549-2.753c0.17-2.196-2.137-2.977-4.244-3.368
	c-3.947-0.734-5.906-2.111-5.906-4.894c0-2.817,2.41-4.867,6.17-4.734c2.33,0.084,4.38,1.243,5.33,2.102l-1.068,1.5
	c-1.164-1.227-3.062-1.836-4.408-1.897c-2.478-0.112-4.131,0.827-4.131,2.815c0,1.568,0.939,2.57,4.742,3.396
	c3.242,0.706,5.631,1.838,5.385,5.234c-0.186,2.584-2.699,4.858-7.021,4.37c-2.099-0.24-4.3-1.4-5.692-2.765l1.164-1.437
	L194.937,37.413z"/>
</svg>
