<svg xmlns="http://www.w3.org/2000/svg" width="799" height="46.667" viewBox="0 0 799 46.667"><path fill="#111" d="M39.144 10.008L32.278 34.32h-3.34l-5-17.768c-.216-.757-.346-1.582-.39-2.475h-.07c-.067.836-.214 1.65-.44 2.44L18.002 34.32h-3.306l-7.12-24.312h3.136l5.17 18.65c.215.78.35 1.593.408 2.44h.085c.056-.6.23-1.413.525-2.44l5.375-18.65h2.73l5.153 18.785c.18.644.316 1.4.407 2.27h.068c.045-.586.197-1.366.458-2.338l4.97-18.717h3.085zm16.36 16.327H43.248c.045 1.933.565 3.425 1.56 4.476.995 1.053 2.362 1.58 4.103 1.58 1.957 0 3.753-.646 5.393-1.934v2.61c-1.526 1.11-3.543 1.663-6.053 1.663-2.454 0-4.38-.79-5.782-2.366-1.402-1.577-2.103-3.795-2.103-6.655 0-2.7.766-4.903 2.297-6.605s3.433-2.552 5.705-2.552 4.03.735 5.273 2.204c1.243 1.47 1.865 3.51 1.865 6.12v1.46zm-2.847-2.356c-.012-1.607-.398-2.856-1.162-3.75-.763-.892-1.822-1.34-3.18-1.34-1.31 0-2.423.47-3.34 1.41-.915.937-1.48 2.164-1.694 3.68h9.378zm9.833 10.34h-2.78V8.617h2.78V34.32zm8.41 0h-2.78V8.617h2.78V34.32zm20.04 0h-2.782v-9.9c0-3.687-1.345-5.53-4.035-5.53-1.39 0-2.54.524-3.45 1.57s-1.365 2.364-1.365 3.957v9.9h-2.78V16.96h2.78v2.883h.068c1.31-2.19 3.21-3.288 5.697-3.288 1.9 0 3.35.613 4.357 1.84s1.51 2.998 1.51 5.315v10.61zm19.19-7.986H97.874c.045 1.933.565 3.425 1.56 4.476.995 1.052 2.362 1.578 4.104 1.578 1.955 0 3.752-.645 5.39-1.933v2.61c-1.524 1.11-3.542 1.663-6.05 1.663-2.454 0-4.38-.79-5.783-2.365-1.402-1.577-2.103-3.795-2.103-6.655 0-2.7.767-4.902 2.298-6.604s3.433-2.552 5.705-2.552c2.27 0 4.03.735 5.272 2.204 1.243 1.47 1.865 3.51 1.865 6.12v1.46zm-2.848-2.356c-.01-1.606-.398-2.855-1.16-3.748-.764-.893-1.823-1.34-3.18-1.34-1.312 0-2.424.47-3.34 1.408-.916.938-1.48 2.165-1.695 3.68h9.375zm6.003 9.713v-2.98c1.514 1.118 3.18 1.678 5 1.678 2.442 0 3.663-.814 3.663-2.44 0-.464-.104-.857-.313-1.18-.21-.32-.492-.606-.848-.855-.356-.25-.774-.472-1.255-.67s-.998-.403-1.55-.618c-.77-.305-1.445-.613-2.027-.924s-1.068-.66-1.458-1.05-.685-.832-.882-1.33c-.198-.497-.297-1.08-.297-1.746 0-.814.187-1.534.56-2.162s.87-1.152 1.492-1.576c.62-.424 1.33-.743 2.128-.958.797-.214 1.62-.322 2.467-.322 1.503 0 2.848.26 4.035.78v2.814c-1.277-.836-2.747-1.254-4.408-1.254-.52 0-.99.06-1.407.178-.418.12-.777.285-1.077.5-.3.215-.53.472-.694.77-.164.3-.246.63-.246.993 0 .452.082.83.246 1.136.163.306.403.578.72.815s.7.452 1.153.644c.452.19.967.4 1.543.626.77.294 1.458.596 2.068.907s1.13.66 1.56 1.05c.43.39.76.84.992 1.35.23.508.348 1.112.348 1.813 0 .86-.19 1.605-.568 2.238-.38.633-.885 1.16-1.518 1.577-.633.42-1.362.73-2.187.934-.825.203-1.69.306-2.595.306-1.785-.002-3.334-.348-4.645-1.037zm14.733 0v-2.98c1.514 1.118 3.18 1.678 5 1.678 2.442 0 3.663-.814 3.663-2.44 0-.464-.102-.857-.31-1.18-.21-.32-.493-.606-.85-.855-.355-.25-.773-.472-1.254-.67s-.998-.403-1.55-.618c-.77-.305-1.445-.613-2.027-.924s-1.07-.66-1.46-1.05-.684-.832-.88-1.33c-.2-.497-.298-1.08-.298-1.746 0-.814.188-1.534.56-2.162s.87-1.152 1.493-1.576c.62-.424 1.33-.743 2.128-.958.798-.214 1.62-.322 2.468-.322 1.504 0 2.85.26 4.036.78v2.814c-1.277-.836-2.747-1.254-4.408-1.254-.52 0-.99.06-1.407.178-.417.12-.776.285-1.076.5-.298.215-.53.472-.693.77-.163.3-.245.63-.245.993 0 .452.083.83.247 1.136.163.306.403.578.72.815s.7.452 1.153.644c.452.19.967.4 1.543.626.77.294 1.458.596 2.068.907s1.13.66 1.56 1.05c.43.39.76.84.993 1.35.23.508.347 1.112.347 1.813 0 .86-.188 1.605-.567 2.238-.38.633-.885 1.16-1.518 1.577-.633.42-1.362.73-2.187.934-.825.203-1.69.306-2.595.306-1.786-.002-3.335-.348-4.645-1.037zm24.533-.355V29.98c.386.34.847.645 1.384.916.536.27 1.102.5 1.695.687.592.187 1.19.33 1.787.433.6.102 1.153.152 1.662.152 1.75 0 3.06-.325 3.924-.975.864-.65 1.297-1.585 1.297-2.806 0-.655-.144-1.226-.432-1.712-.288-.486-.687-.93-1.195-1.33s-1.11-.787-1.806-1.154-1.443-.753-2.246-1.16c-.847-.43-1.64-.865-2.373-1.305-.734-.44-1.373-.927-1.915-1.458-.542-.53-.97-1.133-1.28-1.805-.31-.67-.466-1.46-.466-2.364 0-1.107.243-2.07.73-2.89.484-.82 1.123-1.496 1.915-2.027.79-.53 1.69-.926 2.704-1.187 1.01-.26 2.043-.39 3.094-.39 2.396 0 4.143.29 5.24.865v3.205c-1.437-.995-3.28-1.492-5.528-1.492-.623 0-1.244.066-1.866.196-.62.13-1.176.342-1.66.636-.487.295-.883.674-1.188 1.137-.306.462-.458 1.027-.458 1.694 0 .622.115 1.16.348 1.61.23.453.573.865 1.025 1.238s1.005.735 1.655 1.085c.65.35 1.398.734 2.246 1.153.87.43 1.696.88 2.477 1.356.78.475 1.464 1 2.052 1.577.586.577 1.053 1.216 1.397 1.917.345.7.517 1.503.517 2.408 0 1.198-.234 2.212-.703 3.043-.47.833-1.102 1.507-1.9 2.027-.794.52-1.713.896-2.753 1.128s-2.136.348-3.29.348c-.383 0-.857-.03-1.423-.094s-1.142-.153-1.73-.27c-.587-.12-1.144-.267-1.67-.44-.525-.18-.946-.375-1.262-.59zm26.466 1.39c-2.565 0-4.614-.81-6.146-2.433-1.532-1.622-2.298-3.772-2.298-6.45 0-2.917.797-5.194 2.39-6.834 1.594-1.64 3.747-2.458 6.46-2.458 2.588 0 4.608.797 6.062 2.39 1.452 1.595 2.18 3.805 2.18 6.63 0 2.77-.784 4.988-2.35 6.655s-3.666 2.5-6.3 2.5zm.204-15.835c-1.787 0-3.2.608-4.24 1.823-1.04 1.215-1.56 2.89-1.56 5.027 0 2.057.525 3.68 1.577 4.866 1.05 1.187 2.458 1.78 4.222 1.78 1.795 0 3.177-.582 4.144-1.747.966-1.164 1.45-2.82 1.45-4.967 0-2.17-.484-3.843-1.45-5.02-.968-1.174-2.35-1.762-4.146-1.762zm15.665 15.428h-2.78v-25.7h2.78V34.32zm19.667 0h-2.78V31.57h-.068c-1.152 2.103-2.938 3.155-5.357 3.155-4.137 0-6.205-2.465-6.205-7.392V16.96h2.764v9.934c0 3.662 1.4 5.493 4.204 5.493 1.356 0 2.473-.5 3.35-1.5.875-1 1.313-2.31 1.313-3.925V16.96h2.78v17.36zm13.664-.17c-.655.362-1.52.543-2.594.543-3.04 0-4.56-1.694-4.56-5.085V19.333h-2.984V16.96h2.983v-4.24l2.78-.898v5.137h4.376v2.372h-4.374v9.782c0 1.165.2 1.995.595 2.492s1.05.746 1.967.746c.7 0 1.306-.192 1.813-.576v2.373zm5.138-21.6c-.497 0-.92-.168-1.27-.508-.352-.34-.526-.77-.526-1.29s.175-.95.525-1.296c.35-.345.774-.517 1.27-.517.51 0 .942.17 1.298.516.358.345.536.777.536 1.297 0 .498-.178.92-.534 1.272-.355.35-.788.526-1.296.526zm1.356 21.77h-2.78V16.96h2.78v17.36zm12.885.408c-2.565 0-4.614-.812-6.146-2.434s-2.3-3.772-2.3-6.45c0-2.917.798-5.194 2.39-6.834 1.595-1.64 3.748-2.458 6.46-2.458 2.59 0 4.61.797 6.063 2.39 1.452 1.595 2.18 3.805 2.18 6.63 0 2.77-.784 4.988-2.35 6.655s-3.665 2.5-6.3 2.5zm.204-15.836c-1.788 0-3.2.608-4.24 1.823-1.04 1.215-1.56 2.89-1.56 5.027 0 2.057.524 3.68 1.576 4.866 1.05 1.187 2.458 1.78 4.222 1.78 1.796 0 3.178-.582 4.145-1.747.966-1.164 1.45-2.82 1.45-4.967 0-2.17-.484-3.843-1.45-5.02-.967-1.174-2.35-1.762-4.146-1.762zm27.294 15.428h-2.78v-9.9c0-3.686-1.346-5.528-4.035-5.528-1.39 0-2.54.523-3.45 1.568-.91 1.045-1.366 2.365-1.366 3.958v9.9h-2.78V16.96h2.78v2.883h.068c1.31-2.19 3.21-3.288 5.696-3.288 1.897 0 3.35.613 4.356 1.84 1.006 1.227 1.51 2.998 1.51 5.315v10.61zm4.187-.627v-2.98c1.515 1.118 3.18 1.678 5 1.678 2.443 0 3.664-.814 3.664-2.44 0-.464-.104-.857-.313-1.18-.21-.32-.49-.606-.847-.855-.356-.25-.774-.472-1.255-.67s-1-.403-1.552-.618c-.77-.305-1.444-.613-2.026-.924s-1.068-.66-1.458-1.05-.685-.832-.882-1.33c-.198-.497-.297-1.08-.297-1.746 0-.814.187-1.534.56-2.162s.87-1.152 1.492-1.576c.62-.424 1.33-.743 2.128-.958.797-.214 1.62-.322 2.467-.322 1.503 0 2.848.26 4.035.78v2.814c-1.277-.836-2.747-1.254-4.408-1.254-.522 0-.99.06-1.408.178-.42.12-.778.285-1.078.5-.3.215-.53.472-.694.77-.163.3-.245.63-.245.993 0 .452.082.83.246 1.136.163.306.403.578.72.815s.7.452 1.153.644c.452.19.967.4 1.543.626.77.294 1.458.596 2.068.907s1.13.66 1.56 1.05c.43.39.76.84.992 1.35.23.508.348 1.112.348 1.813 0 .86-.19 1.605-.568 2.238-.38.633-.885 1.16-1.518 1.577-.634.42-1.363.73-2.188.934-.825.203-1.69.306-2.595.306-1.785-.002-3.334-.348-4.645-1.037zm33.35.458c-.655.362-1.52.543-2.594.543-3.04 0-4.56-1.694-4.56-5.085V19.333h-2.984V16.96h2.983v-4.24l2.78-.898v5.137h4.374v2.372h-4.375v9.782c0 1.165.198 1.995.594 2.492s1.05.746 1.966.746c.7 0 1.306-.192 1.813-.576v2.373zm18.124.17h-2.78v-10c0-3.618-1.346-5.426-4.035-5.426-1.357 0-2.5.523-3.426 1.568s-1.39 2.388-1.39 4.026v9.833h-2.78V8.616h2.78V19.84h.067c1.334-2.19 3.233-3.29 5.697-3.29 3.91 0 5.866 2.36 5.866 7.07v10.7zm17.667 0h-2.78v-2.713h-.067c-1.21 2.08-2.99 3.12-5.34 3.12-1.73 0-3.084-.458-4.062-1.374-.977-.914-1.466-2.13-1.466-3.644 0-3.244 1.91-5.13 5.73-5.663l5.205-.73c0-2.95-1.193-4.424-3.578-4.424-2.09 0-3.98.712-5.662 2.136V18.18c1.707-1.085 3.674-1.628 5.9-1.628 4.08 0 6.12 2.16 6.12 6.477v11.29zm-2.78-8.782l-4.19.577c-1.286.18-2.26.5-2.914.958-.655.46-.983 1.27-.983 2.434 0 .848.303 1.54.907 2.077.605.538 1.41.807 2.417.807 1.38 0 2.518-.484 3.416-1.45s1.348-2.19 1.348-3.67v-1.732zm16.07 8.612c-.653.362-1.52.543-2.592.543-3.04 0-4.562-1.694-4.562-5.085V19.333h-2.983V16.96h2.983v-4.24l2.78-.898v5.137h4.374v2.372h-4.374v9.782c0 1.165.198 1.995.594 2.492s1.05.746 1.967.746c.7 0 1.305-.192 1.812-.576v2.373zm12.464-.813V29.98c.384.34.845.645 1.382.916.536.27 1.102.5 1.695.687.594.187 1.19.33 1.79.433.6.102 1.152.152 1.66.152 1.753 0 3.06-.325 3.926-.975.864-.65 1.297-1.585 1.297-2.806 0-.655-.145-1.226-.433-1.712-.287-.486-.686-.93-1.194-1.33s-1.11-.787-1.806-1.154-1.443-.753-2.246-1.16c-.848-.43-1.64-.865-2.374-1.305-.734-.44-1.373-.927-1.915-1.458-.543-.53-.97-1.133-1.28-1.805-.312-.67-.467-1.46-.467-2.364 0-1.107.243-2.07.73-2.89.484-.82 1.123-1.496 1.915-2.027.79-.53 1.692-.926 2.704-1.187 1.01-.26 2.043-.39 3.094-.39 2.398 0 4.145.29 5.24.865v3.205c-1.435-.995-3.277-1.492-5.526-1.492-.622 0-1.243.066-1.865.196-.62.13-1.177.342-1.66.636-.488.295-.884.674-1.19 1.137-.305.462-.457 1.027-.457 1.694 0 .622.115 1.16.348 1.61.23.453.574.865 1.026 1.238s1.003.735 1.653 1.085c.65.35 1.397.734 2.245 1.153.87.43 1.695.88 2.476 1.356.78.475 1.465 1 2.053 1.577.587.577 1.054 1.216 1.398 1.917.346.7.518 1.503.518 2.408 0 1.198-.234 2.212-.703 3.043-.47.833-1.103 1.507-1.9 2.027-.795.52-1.714.896-2.754 1.128s-2.135.348-3.29.348c-.382 0-.856-.03-1.422-.094s-1.142-.153-1.73-.27c-.587-.12-1.144-.267-1.67-.44-.525-.18-.946-.375-1.262-.59zm31.637.983h-2.78v-2.713h-.067c-1.21 2.08-2.99 3.12-5.34 3.12-1.73 0-3.084-.458-4.062-1.374-.977-.914-1.466-2.13-1.466-3.644 0-3.244 1.91-5.13 5.73-5.663l5.205-.73c0-2.95-1.193-4.424-3.578-4.424-2.09 0-3.98.712-5.662 2.136V18.18c1.707-1.085 3.674-1.628 5.9-1.628 4.08 0 6.12 2.16 6.12 6.477v11.29zm-2.78-8.782l-4.19.577c-1.287.18-2.26.5-2.915.958-.655.46-.983 1.27-.983 2.434 0 .848.303 1.54.907 2.077.603.538 1.41.807 2.415.807 1.38 0 2.518-.484 3.416-1.45s1.35-2.19 1.35-3.67v-1.732zm21.667-8.58L417.78 34.32h-2.73l-6.577-17.36h3.052l4.408 12.613c.327.927.53 1.735.61 2.424h.067c.113-.87.294-1.656.543-2.356l4.61-12.68h2.935zm16.734 9.377h-12.257c.045 1.933.565 3.425 1.56 4.476.995 1.05 2.362 1.577 4.104 1.577 1.955 0 3.752-.645 5.39-1.933v2.61c-1.524 1.11-3.542 1.663-6.05 1.663-2.454 0-4.382-.79-5.783-2.365-1.4-1.577-2.102-3.795-2.102-6.655 0-2.7.766-4.902 2.297-6.604s3.433-2.552 5.704-2.552 4.03.736 5.272 2.205c1.243 1.47 1.865 3.51 1.865 6.12v1.46zm-2.85-2.356c-.01-1.606-.396-2.855-1.16-3.748-.762-.894-1.82-1.34-3.18-1.34-1.31 0-2.423.47-3.34 1.407-.914.938-1.48 2.165-1.693 3.68h9.375zm41.727 10.34h-2.832V18.01c0-1.288.08-2.865.237-4.73h-.067c-.27 1.097-.515 1.882-.73 2.356L468.61 34.32h-1.39l-8.292-18.548c-.237-.542-.48-1.373-.73-2.492h-.067c.093.972.138 2.56.138 4.764V34.32h-2.746V10.008h3.765l7.46 16.954c.576 1.3.95 2.27 1.12 2.916h.1c.486-1.333.877-2.328 1.17-2.984l7.613-16.886h3.56V34.32zm13.274.408c-2.564 0-4.613-.812-6.145-2.434-1.53-1.62-2.297-3.77-2.297-6.45 0-2.916.796-5.193 2.39-6.833 1.593-1.64 3.746-2.458 6.46-2.458 2.587 0 4.607.796 6.06 2.39 1.453 1.594 2.18 3.804 2.18 6.63 0 2.77-.783 4.987-2.35 6.654s-3.664 2.5-6.298 2.5zm.205-15.836c-1.786 0-3.2.607-4.238 1.822-1.04 1.215-1.56 2.89-1.56 5.027 0 2.056.524 3.68 1.576 4.865 1.05 1.187 2.458 1.78 4.222 1.78 1.797 0 3.18-.582 4.146-1.747.967-1.163 1.45-2.82 1.45-4.966 0-2.17-.483-3.843-1.45-5.02-.966-1.174-2.35-1.762-4.145-1.762zm27.296 15.427h-2.78v-9.9c0-3.686-1.345-5.528-4.034-5.528-1.39 0-2.54.522-3.45 1.567-.91 1.045-1.365 2.365-1.365 3.958v9.9h-2.78V16.96h2.78v2.883h.07c1.31-2.19 3.21-3.288 5.695-3.288 1.898 0 3.35.613 4.357 1.84 1.006 1.227 1.51 2.998 1.51 5.315v10.61zm19.19-7.985h-12.256c.045 1.933.565 3.425 1.56 4.476.995 1.052 2.362 1.578 4.104 1.578 1.954 0 3.75-.645 5.39-1.933v2.61c-1.525 1.11-3.543 1.663-6.052 1.663-2.453 0-4.38-.79-5.782-2.365-1.4-1.576-2.102-3.794-2.102-6.654 0-2.7.766-4.902 2.297-6.604s3.434-2.552 5.705-2.552 4.03.735 5.272 2.204c1.243 1.47 1.865 3.51 1.865 6.12v1.46zm-2.846-2.356c-.01-1.606-.398-2.855-1.16-3.748-.764-.893-1.823-1.34-3.18-1.34-1.312 0-2.425.47-3.34 1.408-.916.938-1.48 2.165-1.695 3.68h9.374zm20.87-7.02l-7.984 20.14c-1.423 3.595-3.424 5.392-6 5.392-.725 0-1.33-.073-1.814-.22v-2.493c.6.203 1.146.305 1.645.305 1.403 0 2.454-.837 3.155-2.51l1.39-3.29-6.78-17.326h3.085l4.695 13.36c.057.168.175.61.355 1.32h.103c.056-.27.17-.7.34-1.288l4.933-13.394h2.88zm24.924 17.36h-2.782v-2.713h-.067c-1.21 2.08-2.99 3.12-5.34 3.12-1.73 0-3.084-.458-4.06-1.374-.98-.916-1.47-2.13-1.47-3.646 0-3.244 1.91-5.13 5.73-5.663l5.206-.73c0-2.95-1.192-4.423-3.577-4.423-2.09 0-3.98.713-5.663 2.137V18.18c1.706-1.085 3.673-1.628 5.9-1.628 4.08 0 6.12 2.16 6.12 6.477v11.29zm-2.782-8.782l-4.188.577c-1.288.18-2.26.5-2.916.96-.655.457-.983 1.27-.983 2.432 0 .848.303 1.54.907 2.077.604.536 1.41.805 2.416.805 1.38 0 2.518-.484 3.416-1.45s1.347-2.19 1.347-3.67v-1.732zm22.43 8.782h-2.78v-9.9c0-3.686-1.346-5.528-4.035-5.528-1.39 0-2.54.523-3.45 1.568-.91 1.045-1.364 2.365-1.364 3.958v9.9h-2.78V16.96h2.78v2.883h.068c1.31-2.19 3.21-3.288 5.696-3.288 1.898 0 3.35.613 4.357 1.84 1.005 1.227 1.508 2.998 1.508 5.315v10.61zm20.057 0h-2.78v-2.95h-.067c-1.29 2.238-3.278 3.357-5.968 3.357-2.182 0-3.925-.777-5.23-2.33-1.306-1.555-1.958-3.672-1.958-6.35 0-2.872.723-5.172 2.17-6.9 1.446-1.73 3.374-2.595 5.78-2.595 2.386 0 4.12.938 5.206 2.814h.067V8.618h2.78V34.32zm-2.78-7.85v-2.56c0-1.4-.463-2.587-1.39-3.56-.928-.972-2.103-1.458-3.526-1.458-1.697 0-3.03.622-4.003 1.865-.972 1.244-1.458 2.96-1.458 5.154 0 2 .466 3.58 1.398 4.74.932 1.16 2.184 1.738 3.755 1.738 1.55 0 2.805-.56 3.77-1.68.967-1.118 1.45-2.53 1.45-4.237zm17.158 6.867V29.98c.385.34.846.645 1.383.916.536.27 1.102.5 1.695.687.593.187 1.19.33 1.788.433.6.102 1.153.152 1.662.152 1.752 0 3.06-.325 3.925-.975.864-.65 1.297-1.585 1.297-2.806 0-.655-.145-1.226-.433-1.712-.29-.486-.688-.93-1.196-1.33s-1.11-.787-1.805-1.154-1.443-.753-2.246-1.16c-.85-.43-1.64-.865-2.375-1.305-.734-.44-1.373-.927-1.915-1.458-.543-.53-.97-1.133-1.28-1.805-.312-.67-.467-1.46-.467-2.364 0-1.107.243-2.07.73-2.89.484-.82 1.123-1.496 1.915-2.027.792-.53 1.693-.926 2.705-1.187 1.01-.26 2.043-.39 3.094-.39 2.395 0 4.142.29 5.238.865v3.205c-1.436-.995-3.278-1.492-5.527-1.492-.62 0-1.242.066-1.864.196-.62.13-1.176.342-1.66.636-.487.295-.883.674-1.188 1.137-.306.462-.458 1.027-.458 1.694 0 .622.115 1.16.348 1.61.23.453.573.865 1.025 1.238s1.004.735 1.654 1.085c.65.35 1.398.734 2.246 1.153.87.43 1.695.88 2.476 1.356.78.475 1.464 1 2.052 1.577.587.577 1.054 1.216 1.398 1.917.345.7.517 1.503.517 2.408 0 1.198-.234 2.212-.703 3.043-.47.833-1.103 1.507-1.9 2.027-.795.52-1.714.896-2.754 1.128s-2.136.348-3.29.348c-.383 0-.857-.03-1.423-.094s-1.142-.153-1.73-.27c-.587-.12-1.144-.267-1.67-.44-.525-.18-.946-.375-1.262-.59zm31.636.983h-2.78v-2.713h-.068c-1.21 2.08-2.99 3.12-5.34 3.12-1.73 0-3.084-.458-4.062-1.374-.978-.916-1.467-2.13-1.467-3.646 0-3.244 1.91-5.13 5.73-5.663l5.205-.73c0-2.95-1.192-4.423-3.577-4.423-2.092 0-3.98.713-5.663 2.137V18.18c1.706-1.085 3.673-1.628 5.9-1.628 4.08 0 6.12 2.16 6.12 6.477v11.29zm-2.78-8.782l-4.19.577c-1.287.18-2.26.5-2.915.96-.654.457-.982 1.27-.982 2.432 0 .848.303 1.54.907 2.077.604.536 1.41.805 2.416.805 1.38 0 2.52-.484 3.417-1.45s1.347-2.19 1.347-3.67v-1.732zm21.668-8.58l-6.918 17.362h-2.73l-6.577-17.36h3.052l4.408 12.613c.328.926.532 1.734.61 2.423h.068c.113-.87.294-1.656.543-2.356l4.613-12.68h2.934zm16.733 9.377H692.3c.046 1.934.566 3.426 1.56 4.477.996 1.052 2.363 1.578 4.105 1.578 1.955 0 3.752-.645 5.39-1.933v2.61c-1.524 1.11-3.542 1.663-6.05 1.663-2.454 0-4.382-.79-5.783-2.365-1.4-1.577-2.102-3.795-2.102-6.655 0-2.7.766-4.902 2.297-6.604s3.434-2.55 5.705-2.55 4.03.734 5.272 2.203c1.243 1.47 1.865 3.51 1.865 6.12v1.46zm-2.85-2.355c-.01-1.606-.398-2.855-1.16-3.748-.764-.893-1.823-1.34-3.18-1.34-1.312 0-2.425.47-3.34 1.408-.916.938-1.48 2.165-1.695 3.68h9.375zm29.552 10.34h-12.61V10.008h2.848v21.735h9.765v2.577zm4.78-21.77c-.497 0-.92-.168-1.27-.508-.35-.34-.526-.77-.526-1.29s.175-.95.525-1.296c.35-.344.773-.516 1.27-.516.51 0 .94.17 1.297.516.356.345.534.777.534 1.297 0 .498-.177.92-.533 1.272-.356.35-.788.525-1.297.525zm1.356 21.77h-2.78V16.96h2.78v17.36zm19.277-17.36l-6.918 17.36h-2.73l-6.578-17.36h3.052l4.407 12.613c.327.927.53 1.735.61 2.424h.067c.112-.87.293-1.656.542-2.356l4.61-12.68h2.935zm16.732 9.375h-12.26c.046 1.933.566 3.425 1.56 4.476.996 1.052 2.363 1.578 4.105 1.578 1.955 0 3.752-.645 5.39-1.933v2.61c-1.524 1.11-3.542 1.664-6.05 1.664-2.454 0-4.382-.79-5.783-2.365-1.4-1.578-2.102-3.796-2.102-6.656 0-2.7.766-4.902 2.297-6.604s3.434-2.552 5.705-2.552 4.03.735 5.272 2.204c1.242 1.47 1.864 3.51 1.864 6.12v1.46zm-2.85-2.356c-.01-1.606-.397-2.855-1.16-3.748-.763-.893-1.822-1.34-3.18-1.34-1.31 0-2.424.47-3.34 1.408-.915.938-1.48 2.165-1.694 3.68h9.376zm6.003 9.713V30.71c1.514 1.118 3.18 1.678 5 1.678 2.442 0 3.663-.814 3.663-2.44 0-.464-.103-.857-.312-1.18-.21-.32-.492-.606-.848-.855-.356-.25-.774-.472-1.255-.67s-.998-.403-1.55-.618c-.77-.305-1.445-.613-2.027-.924s-1.068-.66-1.458-1.05-.685-.832-.882-1.33c-.198-.497-.297-1.08-.297-1.746 0-.814.188-1.534.56-2.162s.87-1.152 1.493-1.576c.62-.424 1.33-.743 2.128-.958.798-.214 1.62-.322 2.468-.322 1.503 0 2.848.26 4.035.78v2.814c-1.277-.836-2.747-1.254-4.408-1.254-.52 0-.99.06-1.407.178-.418.12-.777.285-1.077.5-.3.215-.53.472-.693.77-.164.3-.246.63-.246.993 0 .452.083.83.247 1.136.163.306.403.578.72.815s.7.452 1.153.644c.452.19.967.4 1.543.626.77.294 1.458.596 2.068.907s1.13.66 1.56 1.05c.43.39.76.84.993 1.35.23.508.348 1.112.348 1.813 0 .86-.19 1.605-.567 2.238-.38.633-.885 1.16-1.518 1.577-.633.42-1.362.73-2.187.934-.825.203-1.69.306-2.595.306-1.785-.002-3.334-.348-4.645-1.037z"/></svg>
