<svg xmlns="http://www.w3.org/2000/svg" width="512" height="512" viewBox="0 0 512 512"><path d="M274.86 310.48c1.33 5.5 1.612 13.97-.417 19.522-2.635 7.2-7.856 10.854-15.52 10.854H245.84V297.25h10.21c9.72 0 16.48 3.563 18.81 13.23zm-89.827-14.255H173.8v19.392h11.233c4.827 0 9.605-.565 11.854-4.667 1.387-2.537 1.387-7.52 0-10.057-2.248-4.104-7.026-4.668-11.854-4.668zM322.805 50.302v100.493h100.493L322.805 50.302zm100.878 135.48V462H88.317V50h199.5v135.78h135.866zM214.62 296.798c-3.276-9.95-12.452-15.657-25.175-15.657h-34.32v75.82H173.8v-26.264h15.645c12.752 0 21.93-5.727 25.176-15.71 1.947-5.982 1.947-12.273 0-18.19zm70.096-6.247c-6.086-6.155-14.614-9.41-24.665-9.41h-32.88v75.82h32.88c11.06 0 19.795-3.71 25.967-11.02 11.42-13.537 12.073-41.857-1.3-55.388zm76.16-9.41h-54.07v75.82h18.673v-30.265h30.674v-15.083H325.48V297.25h35.395v-16.107z"/></svg>
